<?xml version="1.0" encoding="utf-8"?>
<!-- Generator: Adobe Illustrator 18.0.0, SVG Export Plug-In . SVG Version: 6.00 Build 0)  -->
<!DOCTYPE svg PUBLIC "-//W3C//DTD SVG 1.1//EN" "http://www.w3.org/Graphics/SVG/1.1/DTD/svg11.dtd">
<svg version="1.1" id="Layer_1" xmlns="http://www.w3.org/2000/svg" xmlns:xlink="http://www.w3.org/1999/xlink" x="0px" y="0px"
	 viewBox="0 0 595.3 606" enable-background="new 0 0 595.3 606" xml:space="preserve">
<g>
	<path fill-rule="evenodd" clip-rule="evenodd" fill="#FFFFFF" d="M462.7,415.4c-0.2-14.8-4.4-9.8-9.8-14.9c4-2.5,8.3-9.4,1.5-11.1
		c2.1,8.6-2.1,10.3-6.7,14.4c9.7,0.1,12.4,1.3,13.4,10.5c-2.3,2.9-13.5,11.4-17,13.5c-0.7-15.9,0.6-26.7,7-39.3
		c3.1,1.6,1.2,0.3,3.4,0.8l-3.4-5.5c-12,17.7-8.6,43.8-9.2,45.2c-4.3,4.5-17.7,10.8-23.6,14.4c-1.7-1.3-0.1,0.2-1.4-1.8
		c-0.6-1-0.4-0.9-1.2-2.1c-1.1-1.7-1.1-2.3-3.6-3.2c-9.7-3.6-41.9,10-16.3,17.8c-18.2,12.2-72.8,23.7-98.3,23.6
		c-39.8-0.2-64.3-10.6-97.9-23.2c4.8-1.9,7.2-1.9,10-6.3c-1.2-6-7.7-9.7-14.7-11.5c-16.1-4.1-16.9,6.2-16.9,6.2
		c0-0.2-0.2,0.5-0.3,0.8c-7.1-5-18.3-9.2-24.3-14.9c-0.3-7.9,1-18.9-1.2-26.1c-2.2-7.1-5.4-12.1-6.8-19.4
		c-5.6,4.6-12.5,12.5-2.7,17.6c-0.2,0.2-0.6,0.4-0.8,0.4l-1.6,0.8c-13.3,6.1-3.1,9.5-10.7,33.9c-4.6,14.6-13.9,27.9-15.5,33.7
		c6.9,7,22.2,16.5,32.3,22.4c12.1,7,9.6,1.8,22.2,2.9c9.3,0.8,11.5,3.9,12.1,13.6c29.4,13.1,80.8,22.7,116.8,23
		c18.7,0.2,45.2-3.5,62.8-6.9c28.3-5.6,32.6-9.5,54.5-15.9c1.2-9.2,2.8-13.2,12.7-13.8c13.4-0.9,9.5,4.2,22-3.2
		c8.1-4.8,27.2-16.1,32-22.1C478.5,458.8,463.1,443.2,462.7,415.4z M448.7,436.4l6.1-0.1l0.7-5.3l6.5,0.2l-0.1,5l-5.3,0.3
		c-0.2,0.3-0.3,0.7-0.4,0.9c-0.1,0.2-0.3,0.6-0.4,0.9c-0.1,0.2-0.3,0.6-0.4,0.8l-1,2.3c-4,0.1-2.9,0.5-5.9-1L448.7,436.4z
		 M369.2,479c5.1-2.3,4.3-1,5.6-0.3l0.1,4.4l-8.3,2.9L369.2,479z M339.3,485.3c1.8-0.4-0.2,1.1,1.9,1.8c0,0,3.4-0.1,4.2,0l-0.6,5.6
		l-8.2,1.4C337.5,491.7,338.1,485.6,339.3,485.3z M276.6,499.6c-2.4,3.9-3.3,3.7-5.1-0.7C273.3,497,274.5,498,276.6,499.6z
		 M257.3,493.7l-1.1,3.8c3.4-1.5,2.2-1.2,5.1,0.4l-1.3,4.8l-8.7-0.9C252.8,498.7,254.3,494.7,257.3,493.7z M236.3,487.1
		c3,0.5,2.7-2.1,4.4,3.6c-3.7,1.9-0.1,1.5-3.7,0.8c-7.6-1.5-6.2,0.5-7.1-4.7C235,484,231.7,486.4,236.3,487.1z M210.5,467.4
		c0.4,0.7,2.4-2.3,0.2,3.8h5.4l-0.6,6.3l-10.5-1.1C206.3,474.2,208.2,470.3,210.5,467.4z M169.5,462.1l6.3-0.8l1.8,4.3l-4.4,1.4
		l-3.4-3.2c-5.8,1.2-5.1,2.4-7.1-3.1C166.5,457.2,168.2,458.1,169.5,462.1z M154.9,446.3l6.4,0l1.5,4.2l-5.8,1.2l-1.4-4.2
		c-4.9,0.6-8,2.4-7.6-3.8C153.8,441.1,153.3,441.7,154.9,446.3z M138.2,405.3l9.2-2.5c-5.2-3.9-11.6-7.4-3.6-14.5
		c8,10.1,7.2,27.7,7.9,39.7L138,417.8C130.5,411.7,136.9,406,138.2,405.3z M132.7,455.5l-5.8,2.3c1.3,8,3.7,8.9,13.1,9
		c-0.2-0.3-0.4-0.7-0.6-0.9c-3.4-4.7-2.5-1.2-3.2-3.9c-0.1-0.5-0.5-0.5-0.7-1.1l7-1.1c1.9-3.1-4-8.3,9.1-7.1
		c-0.4,5.3-3.2,7.8-8.4,9.6c1,4.1,1.1,1.8-0.2,5.4C124.2,477.2,114.8,456.6,132.7,455.5z M156.2,471.6c-2.9,1.4-12.5,11.6-20.8,0.9
		c24.6,1.6,12.5,0.4,19.6-7.2c4,0.6,2,0.1,5,2.6c11.9,10.1,10.7,1.9,15.8,6.6C164.6,479.6,166.5,478.5,156.2,471.6z M167.1,492.7
		c4-3.9,9.3-4.5,13-15.1c9.4-27.1-8.6-41.2,10-39.7c7.6,0.6,14.6,4.5,16.7,9.1c-2.3,5.7-7.3,4.7-12.9,6l-11.5,50.4
		C180.2,495,176.6,493.1,167.1,492.7z M188.1,486.3c2.2-2.5,5.2-5.5,8.5-4.2c-4.5,2.3-1.9-0.8-5,3.4c1.5,6.5,4.7,7.5,12.6,7
		l-4.2-4.9c2.4-1,6.9-0.9,8.3-2.1c2.5-2.1,0.8-3.2,2.1-6.5l4.5-0.2c-0.3,6.7-2,7.4-7.2,9.6c0.1,3.4,0.9,1.7-0.3,5.3
		C199.7,498,188.1,498.6,188.1,486.3z M201.3,497.9l7.5,0.6c2.6-3.6,0.8-3.8,3.9-6.6l0.6,3.3C212.3,502.3,204.6,506.2,201.3,497.9z
		 M233.4,507.5c-0.2,0.1-0.4,0.3-0.6,0.5c-0.2,0.1-0.4,0.4-0.5,0.6c-2.8,3,0.6,3.5-6.1,2.8l-1.9-6.2c-4.5-1.5-7-2.1-10.1-5
		c0.5-4.1,4.4-11.9,8.1-13.8c-1.3,4.1-3.8,7.3-3.7,11.2l5.4,2.1c3.9-4.2,1.5-3.8,8.6-4.4c-1.6,7.9-0.8,5.8,0.4,7.3
		c3-1.2,2.2-1.9,4.9-3.7C235.4,509.6,237,504.7,233.4,507.5z M240.4,499.8c1.8-6.8,0.7-5.8,6.1-8.8c-1.9,7.9-5.3,15.8-9.9,20.2
		C238,507.2,239.5,503.5,240.4,499.8z M299.7,521.5c1.9,2.8,1.7-0.7,0.6,4.4c-2.2,0.2-3.5,0.6-4.4-1.5
		C294.4,521,299.2,521.6,299.7,521.5c-4.1-3.2-3.2,4.2-7-3.3c4.1-4.7,1.5-0.9,5.4-1.3c1.6-0.2,2.4-2.9,5.1,2.4
		C300.7,522.6,303.5,520.6,299.7,521.5z M306.7,512.5c-15.7,0.6-1.8-4.2-13.8,1.2c-6,2.7-8-1.4-18.4-1.5c-7.9-0.1-24.6,0.2-30.2-4.2
		c-0.2-3.4-0.1-3.8,1.6-5.9c0.1,0,0.1,0,0.2,0c-0.8-1.3,2.7,0.1,0,0c0.1,0.2,0.4,0.6,0.9,1.1l1,1c1.4,1,13.9,5.2,17.9,0.7l1-1.6
		c0.2,0.2,0.5,0.3,0.6,0.6l3.9,3.8c4.3-1.8,1.3,0.4,4-4.4c5.6,3-0.8,0.2,3.1,3.3c0.1,0.1-1.8,2.3,3.7,1.1c3.8-0.8,3.4-3.5,7.3-5.3
		c3.2,1.8,3,2.2,5.4,4.5c3.5-1.6,0.2,0.8,3.7-3.5c0.2,0.2,0.4,0.3,0.4,0.7c0.4,1.9,2.3,3.2,4.1,3.7c0.5-8.7-3.2-12.8,0.6-19.5
		c1.7,1.8,2.2,2.5,2.7,6.4c1.3,10.2-0.8,13.5,4.4,12.7c4.5-0.8,0.1,0.8,3.2-3.1c0.8-1,1.2-1.6,1.4-2c-4.5,2.1,1-2.1,0,0
		c0.2-0.1,0.3-0.2,0.5-0.2c1.4,3.3,3,4.9,0.7,10.4C310.3,513.9,310.1,512.4,306.7,512.5z M312.6,524.5c-3.5,0.9,0.3,2.7-3.4,0.9
		c-3.3-1.6-1-1.7-1.8-4.1c1.9-0.9,7.5-2,10.5-1C316.8,526.1,316.2,523.6,312.6,524.5z M320.8,517.1c6-3.9,4.8,1.6,6.9-4.5l-1.4-0.6
		c-3.6-0.9-4.7,0.1-6-3c-1.8-4.2,0.6-7.5,2.1-9.7c9.1,1.5,0.9,6.3,10.3,4.3c-1.1-4.8-1.8-4.3-0.9-10.2c9.8,12.6,1.1,14.1-1.4,15.9
		C331.8,525.2,322.9,521.4,320.8,517.1z M338.4,523.5c-2.6,0.5-2.2,2.8-6-0.8c2.2-6.1,0.5-2.1,5.3-3c2.4-0.5,1.6-2.5,5.5,0.8
		C341,526.1,342.7,522.7,338.4,523.5z M339.1,513.7c-1.4-9.4,1.4-2.5,5.2-10.8l-5.4-0.9l-0.6-4.9l8.3,2.1
		C348.9,507.8,346.6,512.4,339.1,513.7z M351.3,506.2c4.4,8.9,10,9,13.1,4.3c5.4-9.5-10.4-19.9-6-28.9c3.3,4.5,3.9,11.7,9,14.3
		c3.5-1.5,2.4,0.9,3-5.2c2.2,1.8,2,2.1,5.3,2.8c-0.7-5.8,0.3-5,1.5-6.3c1.5,6.4-0.2,3.4,3.8,4.3c1.5-2,1.3,0,2-5.4l2.1,1.8
		c2.9,2.2-0.9,0.3,3.4,2.3c1.1-2.8,0.3-2.2,1.1-5.4c3.5,3,3.4,3,8.8,1.7l-5.6-3.9c-11.8-7.1,8.1-15.7,9.4-15.8c0.9,7-1.9,4-6.5,8.3
		c-2.3,2.2-1.4,1.3-2.3,3.4c5.8,3.9,10.1,3.1,10.1,11.1c-4.8,1.7-5.1,2.5-10.3,0.8c-2,4.2-0.3,2.1-6.3,4.1l-2.5,0.8
		c-0.7,0.2-3.2,0.9-3.5,1c-0.5,0.2-2.4,0.9-2.7,1c-4.5,1.2-1.9-0.7-6.9,2c-1.5,0.8-2.8,1.3-3.9,1.8
		C375.3,526.1,347.5,519.9,351.3,506.2z M382.7,500.1c-0.7,3.8-0.9,2.5-3.3,4.1l-1.3,0.9c-1.3,0.8,0.2,2.8-4.9,0.7
		c0.2-5.6,0-2.2,1.2-3.6c0.2-0.2,1.1-0.6,1.4-0.8c3.8-2.9,1-2.3,4.1-2.5C385.3,498.5,380.9,499,382.7,500.1z M384.3,508.1
		c0.9-9.7-1.5-0.4,5.9-6.9l1.4-1.3c5.5-1.9,3,1.4,3.5,2.5c-2.9,4.8,0-0.8-5.2,3.6C387.8,507.7,391.8,508.5,384.3,508.1z M392,510.8
		l-0.2-4.1l4.7-0.1l0.1,3.7L392,510.8z M401,497.8c-2.9,1.2-2.5,1.1-5.3,0.1c0.2-6.5-1.9-2.4,3.4-4.8c2.3-1,1.6-2.8,6,0.3
		C404.7,495.6,405.4,495.9,401,497.8z M413.1,504.4l-11.3-50.5c-4.7-2.8-6.9-0.1-13-5.6c1.4-6.4,9.9-9.9,17.1-10.3
		c13.4-0.8,7.4,7.8,6.8,14.8c-1.3,15.9,1.9,34.5,15.2,38.2C420.8,497.1,416.8,489.3,413.1,504.4z M458.5,475l-6.3,0l-1.1,5.1
		c-5.6,0-4.2-0.3-5.8-1.5c0.7-5.4-1.4-3.9,5.9-3.7l1-5.3l6.4,0.4L458.5,475z M456.8,455.9c-3.6,0.7-0.9-0.9-3.2,1
		c-0.6,10.1,3.1-2.4,3.1,7c-3.1,2.2-10.1,2.1-12.4,0.2c-2,2.9-0.2,5.1-4.4,5.1c-3.1,0-1.4-1.3-5.7-2.9l-3.9,2.7
		c-0.1-0.2-0.4,0.3-0.7,0.5c3.4,9.1,2.1,13.4-6.5,15.5c2.5-4.4,5.5-5.6,5.1-13.5c-3.4-2.6-3.9-0.5-5.2-5.7l6.9-2
		c2.2-4.1-0.4-1.5,1.9-5.8c1.2,0.9,0.5,0.4,1.8,1.8c3.8,4.1,2.1,3.4,6.2,4c1.4-3.6-0.6-1.8,1.4-6.2c3.8,2.5,2,3,6.6,3.9
		c2.2-2.8,1.7-2.5,2.4-7c-5.9,2.4-4.3,3.6-8.4-0.8c2.4-2.4,6.6-5,10.3-5.8c4.2,4.5,3,8.4,11.2,1.3c-2-6.9-4.5-0.7-3-9.5
		C466.8,443.9,473,452.6,456.8,455.9z"/>
	<path fill-rule="evenodd" clip-rule="evenodd" fill="#FFFFFF" d="M473.2,242.9l-2.3,5.9l-7.6,0.7c1.4,3.4,2.8,3.6,4.7,6.6
		c-12.5,10.7-11.2,8.9-23.6,21.4c4.8-21.2,19.3-33.5,26.9-51c-7.9,8-13.1,21.1-21.4,29.4c0-12.4,17-25.7,19.3-37
		c-8.6,4.9-10.3,20.3-19.9,25.3c-5.1-26.9-6.7-21.9,5.4-44.3c5.8-0.9,14.4-1.4,17.9-6.2l-7.8-3.7l2.4-12.4l-9,5.7
		c-1.3,1.2-0.5,0.7-1.9,1.7c-1.3-1.7-2-2.9-3.3-4.1c-0.2-0.2-1.9-1.5-2.1-1.6c-0.9-0.6-0.9-0.7-0.9-0.7c-0.3-0.1-0.8-0.3-2-0.8
		c0.5,6.5,1.5,12.1,3.8,17.9c0.9,2.3,1.3,2.9,1.4,3c-0.1-0.1-0.6-0.4-1.1,0.9l-8.5,15.4c-1.1,1.5-0.6,1-1.7,2
		c-3.7-13.5-7.3-14-2.8-28c2.8-8.6,6.4-20.5,3.4-29.6l-9.4,31.9c-1.2-1.3-9.8-15.9-10.2-17.6c-1-4.4,0.2-9.3,1.1-13.5
		c0.3-1.6,0.8-4.4,1.2-5.6c0.4-1.1,0.5-1.6,1-2.5c0.9-1.7,0.6-1.2,1.4-2.2l2.7,8.1l3.9-9l10.8-2.3c-1.6-2.8-3.6-4.2-6.4-6.9
		l3.4-10.7c-3.3,1.1-4.8,2.8-8.8,4c-1.7-1.1-2.4-1.7-4.5-3.2c-2.5-1.7-2.2-1.6-4.6-2.8l0.3,11.8c-2.9,1.1-5,2.1-8.1,3.9l8.6,4
		c-0.4,5.7-3.3,17.7-6.4,21.2c-4.4-5.4-7.4-9.8-11.6-15.2c-4.7-6.1-9.2-8.7-5-19.2c14.8-0.3,9.2,0.2,18.7-5.8
		c-2.4-3.1-5.7-4.3-10.4-5.4c-0.8-6.5-0.5-6.9-3.9-10.5c-3.6,2.5-2.6,3-5.7,6.2c-3.8-2.5-6.5-4.1-12.1-5.4
		c2.7,9.8,6.3,13.8,11.8,19.4l-3.3,9.2c-4.3-4.9-9.4-20.5-14.2-27.9c0,5.6,5.5,14.8,7,20.4c-3.4-5.8-10.2-7.4-10.9-15.4
		c-0.8-9-2.6-12.1-7.8-18l-3.4,7.7c-4.8-1.1-5-2.4-9.5,0.1l6.2,6.7c-1,4.7-2.7,6.2-1.9,10.9c8.8,0.3,9.3,1.2,15.2-2.7
		c2.7,3.7,8.2,8.5,10.2,12.5l-15-3.7l4.1,3.4c4.1,2.2,10.2,2.6,13.7,4.3c2.1,1.1,4.2,3.9,6.4,6c2.9,2.7,4.3,3.6,5.7,7
		c-1.8,0-3.4,0-4.7,0c11.8,2.1,26.3,29,29.4,35.6c-3.8-4.5-17.9-15-26.7-16.9c2.3,6.3,18.1,17.2,23.6,21.5
		c10.5,8.2,14.1,14.6,16.8,28.4c-4.1-2.2-24-24.5-30.2-30.9c-3.7-3.7-0.5-1.8-5.1-3.7c2,5.6,6.7,10.7,10,14.6
		c10.3,11.8,5.8,8.4,11.3,9.7c-0.1,0.6-0.2,1-0.2,1.2c0-0.2-0.2-0.4-0.6-0.1l-5.6,1.6c-3.7,0.1-2.9-2-7.3-2.6l1.1,7l-5.2,4.2
		c2.5,1.6,4.4,1.7,5.7,3.6l2,5.2c0.1-0.2,0.2,0.7,0.4,1l4.5-3.9l3.9,4.4h2.9c-1.2-4.8-0.8-1.8-3.8-5.8c2.9-1.8,2.9-1.4,6.7-1.6
		c-3.8-4.6-5.5-2.3-4.6-10.3c3.8,2,5,3.8,7.6,7c10.7,13,10.5,7,11.2,26.6c-3.1-1.6-12.7-12-14.9-15.2c-0.4,0.2-3.5,1.4-3.8,1.5
		l0.6,6.2c-10.3-0.3-7.6-1.6-14.2-5.8l-2.5,6.9l-7.8,1c4,7.3,5.1,2.5,6.6,13l6.2-2.1c11.4,20.9,22.7,38.7,6.9,56.1
		c-1.4-5.8-2.3-13.6-3.6-20l-6-16.5c-0.1-0.4-0.4-0.4-0.6-0.5c2.3,15.1,10.5,31,4.8,47.8l-8.6-14.6c-2.1-6.7-1.4-12.5-2-19.7
		c-4.8,10-1.6,26.9,1.6,36.9c2.8,9,3.3,9.3-1.5,16.2c-2.1,3-5.6,9-8.5,11l-7.9-37.1l5.4-2.1l-2.4-2.5c-3.4-3.7-2.2-6-2.9-11.1l-5,5
		l-8.5-3.2c1.7,11.1,0.2,7.4-3.3,15.2l7.6,0.4l4,6.1l3.1-5.4c3.4,9.1,4.3,12.9,5.1,24.1c0.9,11.4,1.8,17.1-5.9,22.1
		c5.4-14.9,5.8-23,2.4-39c-4.5,4.6-2,14.9-4.6,21.8l1-9c-5.7,5.1-1.7,4.5-4.9,3.3c-0.2-0.1-1.5-0.6-1.6-1c-0.2-0.4-0.6-0.5-0.8-0.6
		l-0.6,5.7l-6-2.8l0.3,7.2c2.4,1.7,2.9,1.4,5.7,3.2c0.3,23.2-12.4,31.6-29.1,41.6c3-6.7,7.7-11.6,11-19c3.2-7.2,7.3-12.8,10.2-19.4
		c-4.2,2.6-10.1,11.3-12.8,15.7c-7.2,11.9-9.8,26-22.6,33.9c-4.7,2.9-13.3,6.4-19.6,6.6c7.3-4,7.4-19,18.4-24.8
		c11-5.9,17.4-6.8,23.8-19.6l-4.9,3.4c0.8-6.2,10.3-6.6,13.3-20l-10.1,5l-2.7-7.4c-1.9,2.6-2.7,5-5.4,6.4c-4.6-2.6-3.3-3.9-8.2-6
		c1.1,11.8,4.1,13.1,10.1,19.5c-0.6,3.4-0.9,5.8-3.9,7.1c-4.9,2.1-2.9-0.8-7.1-3.3c-0.5,6.9-0.6,7.1-4.8,10.4
		c-4.3,3.4-4.1,5-9.4,6.5c-2.4-3.7-3-2.3-3.9-7.6c7.1-5.6,11.4-4,13.3-12.7c-6.2,2.5-12.1,6.6-15.3,12.4c-4.9,8.9,4.7,5.7,0.9,21.1
		c-2.2,1.1-2.3-0.2-2.9,0c-1.6,7.4-4.8,8.3-10.2,11.7c-0.5,0.3-1.5,1-2.1,1.4c-1.1,0.8-1.3,1-1.9,1.6c5.4,2.6,0.9-1.8,8.9,0.1
		c6.2,1.4,6,1.6,12.6,0.6l-5.7-3.3c13.1-3.5,13.1-2.6,21.6,2.6l-5.7,3.6c2.2,2.1,3.1,2.6,4.9,5.5l-2.9,8.2l9.4-3
		c3.3,2,3,2.6,7.4,4.6c-0.3-7.6,0-9.1,4.6-13.7l1.6-1.8c-3.2-1.3-5.6-0.6-7.7-2.5l-3.3-6c-0.1-0.4-0.4-0.5-0.6-0.7
		c-1.8,2.4-2.3,3.4-5.3,4.8c-2.3-1.9-3.7-2.6-6.6-5.7c1.2-3.2,5.8-7.3,9.4-8.4c4.1-1.3,11.3,0.8,16.6,0.5c-2.7-2-7.2-2.8-9.8-4.9
		c37.1-2.6,20.5,18.1,19.9,27.3c3.4-2.1,4.8-2.6,7.5-6.5c1.7,2.2,2.2,3.8,5.8,4.9c2.5-4.5,1.3-4.6,0.4-9.2l8.7-4.8l-6.8-2.4
		c-13-1.9-4.9-5-17.3-9.5l7.6-2.5l-13.8-0.6c-1.6-0.3-1.6,0.3-2.4-1l21.3-1.3c0-0.2,0-0.4-0.1-0.8c0-0.5-0.1-0.5-0.2-0.5
		c0-0.1,0.1-0.3,0.3-0.6c29-1.1,19.9,5.1,19,9c12.1-3.5,3.4-4.2,13.5,1.1c0.8-6.4,1-8.2,4.9-12.1l1.2-1.3c0.1-0.2,0.5-0.3,0.6-0.8
		c0.1-0.4,0.4-0.5,0.6-0.8c-10.1-2-5.3,0.6-9.3-8.5c-5.6,6.3-1.5,7.1-12.8,8.1l2.9,5.4l-37-2.4c7.1-10.7,10.6-7.2,24.7-9.9
		c8-1.5,18-4.5,21.3-10.5c-12.7,2.3-11.7,4.7-30,5.7c2.9-4.6,7.4-7.7,11.5-11.5c5.2-4.9,47-14.4,51.8-12.8c0.5,4.1-1,4.4-2.5,7.9
		c2.5-1.4,2.6,0,3.9-4.2c0.9-3,0.4-2.7,0-5.3c-6.7-2.8-16.2-3-24.1-1.6c-8.7,1.6-12.8,6-20.2,6.6c3.3-9.8,15.3-6.6,26.8-13.3
		c8.5-4.9,17.7-9.8,18.5-20.9c-6.5,8.3-24.8,21.1-36.5,20.6c1.2-4.6,6.8-7.8,10.5-10.7c4.2-3.3,8.4-6.7,12.6-10.1
		c10.3-8.3,13.9-22,21.5-22.7c4.4,4.4,2.7,7.2,5.6,12.5c3.4-2.5,4.6-8.6,3.4-13.6c-12-5.4-20.6,3-26.9,9.2
		c-6,5.9-13.6,13.6-18.8,20.9c6.5-11.3,12.9-23.6,20.1-35.5c5.2-8.6,19.4-24.8,28-28.2l1.1,5.4c8.9-4.3,3.4-2.7,12.6,0.1
		c-0.8-6.2-1.3-7,2.1-11.6l1.1-1.7c0.1-0.5,0.4-0.6,0.5-0.9C474.7,248.7,479.6,249,473.2,242.9z M377.5,370.8
		c1.3-6.2,2.6-20.3,7.4-22.9C384.5,355,383.4,366.7,377.5,370.8z M433.9,291.9c-1.7-2.5-5-15.4-6.9-19.7c-2.8-6.5-6.4-12.2-8.6-18.1
		l5.1,1.8c-0.1-8.6-2.8-4.9,2.1-12.6c2,2,1.1,0.3,2.3,3.5l3.8,22.2C433.8,277.2,438.5,285.1,433.9,291.9z M439.4,275.5
		c-3.7-12.5-8.8-23.7-9.8-38.9C438.4,243.4,450.3,264.9,439.4,275.5z M450,178.6C450.4,178.7,450.1,178.5,450,178.6L450,178.6z
		 M394.9,152.5c0.8,0,1.7,0,2.8,0C396.8,152.4,395.8,152.4,394.9,152.5z M384.6,147.5c-3.7-3.3-9.7-5.4-15.4-5
		c1.8,3.1,3.8,6.9,5.2,9.7c-3.2,2.6-3.9,2.2-3.5,8.3l9.1,0.4c1.2,3.6,3.7,7.5,7,9.8l3.4-12.8c0.1-0.3,0.1-0.7,0.2-1l0.5-1.8
		c0-0.4,0.2-0.6,0.3-0.9c1.1-1,2.3-1.6,3.5-1.8C390.6,152.5,389.3,151.7,384.6,147.5z M383.3,390.2L383.3,390.2
		C383.5,391.7,384.2,387.4,383.3,390.2z"/>
	<path fill-rule="evenodd" clip-rule="evenodd" fill="#FFFFFF" d="M301,420.9c-2.2-2.6-0.7-1.6-3.5-3.2c-6.9-4-16.7-7.3-19.1-15.8
		h-2.4c-5.7-15.5,4.2-12.4,1.2-20.4c-2.2-5.7-9.3-12.2-16-13.9c2.2,7.4,4.2,5.9,10,9.8c6.7,4.5,1.3,7.3-2,10.4
		c-3.1-2.7-4.6-4.3-8.3-7c-6.7-4.9-2.5-3.9-5.5-10.2c-3.9,3.6-0.4,2.8-5.9,4.2c-10.5-9.1,3.7-8.8,6-27.3l-8.7,6.3
		c-3-3.1-2.7-3.3-4.1-6.5l-4,7c-3-1.5-5.9-4-9.7-4.1c3.4,12.2,8.1,11.3,13.2,16.7c-0.9,0.6-1.1,0.8-1.1,0.9c0-0.1,0.1-0.4-1.5-0.5
		c-3-0.1,0.6-1.2-1.7-0.4c9.5,15.5,10.9,11.3,23.6,19c10.6,6.4,11.8,21.9,18.5,24.5c-10.3,0.3-23.5-6.6-28.7-14.2
		c-6.3-9.3-9.1-19.4-15.6-28.4L223,351.4c3,9.4,18.1,32,23.2,41.2c-3.7-1.7-16.8-11-20.3-14.1c-4.7-4.1-9.4-18.9-9.2-27.5
		c5.1-3.1,6.2-2.4,6-10.1l-5.8,2.5l-0.9-5.8c-3.8,2.6-3,5.6-5.2-0.8l-2.4,6.7c-0.4-5.6,0.9-14.7-2.4-19.6
		c-6.9,10.4-1.4,27.7,1.5,38.5c-11.8-6.4-4.5-40-0.3-46c0.2,0.3,1.1,1.8,1.1,1.9c1.7,2,1,1.5,3,3l2.6-6.2l7.5-0.3
		c-4.2-8.1-5.2-2.7-3.4-14.7l-7.6,2.4l-3.5-2.5c-0.3-0.2-0.6-0.4-0.9-0.5l-1.9-1.1c0.6,12.9,0.6,6-4.8,13l5.6,2.2
		c-2.1,7.1-3.7,9.9-4.9,18.1c-0.8,5.6-1.7,14.3-3.4,18.8c-3.7-3.3-6.1-7.8-8.8-12.2c-4.5-7.1-3.4-7.1-0.5-16.2c5-15.8,4-21.9,1-37.7
		c-0.8,13.8,0.3,27.2-9.6,35.9c-5.9-7.5-0.3-41.4,5.6-47.1l2.7,5.5c4-6.5,3.2-6.1,9.4-8.2l2.6-1.2c-1.8-1.9-2.8-2.6-4.9-4l1.3-9
		c-3.7,1.6-4.4,2.6-9.1,3l-3.3-3.5l-2.2,0.8c1.2,9.4,0.1,8-4.3,12.9l5.7,1.9c-7.9,19.3-7.2,33.2-10.4,38.6
		c-15.3-16.5-0.5-45.8,7.9-55.8l3.3,1.7c4.3,0.1,2.1-1.9,4-6.2c1.9-4.3,2.6-2.2,5.1-6.4l-7.9-1.1l-2-7.2c-7.4,3.2-3,5.6-13.8,6.1
		l-2-9c-5.7,3.4-9.8,11.9-16.6,15.4c0.1-11.4,0.4-13.6,5.9-20c2.8-3.2,8.9-10.2,12.8-12.5c0.4,10.5,0.2,3.4-4.5,9.4l5.8,1.9
		c0.2,0.1,0.6,0.2,0.8,0.4c-3.9,2.9-3,1-3.7,6.1c4.8-2.4-0.2,0.2,3.9-2.7c1.8-1.3,0.4-0.9,3.3-2.1c1.4,1.1,0.9,0.8,2.2,2.1l2.6,2.6
		l1.3-7.9l6.3-2.2l-5.2-4.3l0.6-7.7c-3.3,1.4-4.3,3.2-6.8,3.1c-5.6-0.1-1.1-4.2-6.7-0.7c0.1-0.2,0.2-0.4,0.2-0.6
		c0.4-0.3,1-0.9,1.9-1.6c0.2-0.2,0.4-0.4,0.6-0.5c1.4-1.3,1.7-1.5,2.9-2.8c4.3-4.5,14.5-15.9,15.5-21c-11.1,7.8-25.1,26.9-34.8,34.4
		c0.8-5.6,3.3-11.5,5.3-16.2c4.5-11.2,30.6-22.7,34.9-33.6c-6,1.5-14.5,7-19.5,10.6c-2.8,2-3.4,3-6,4.6c2.6-7.1,8.8-15.5,13-21.3
		c5.7-7.8,7.8-13.3,21.7-11.4c2.2,6.7-0.4,10.1,4.9,16.4c3.1-2.6,4.3-4.8,6.8-8.9l8.4-0.6c0.9-5.1-0.6-5.6-3.5-8.4
		c1.5-3,3.7-5.9,5.2-10.2c-26,3.7-7,10.3-33.3,10.5c12.3-20.2,19.5-10.6,30-20.6l-15,3.3c3.1-4.4,7.4-7.7,9.1-12.5
		c-5.4,2.3-6.6,7-11.1,10.4l7.1-18.7c-0.6,0.1-0.9,0.1-1,0.6c-0.1,0.4-0.5,0.5-0.6,0.7l-1.1,1.5c-5,7.6-7,17.8-12.4,24.5l-2.6-9.8
		c6-7.1,8.4-9,12-19.5l-12.9,5.2c-1.6-2.6-1.5-3-4.4-5.6c-4.5,3-3.9,4.1-4.8,10.4l-10.2,3.7c3.5,6.6,9.8,8,18.5,6.9
		c4.2,12.3,2.2,10.7-4.6,19.2c-3.7,4.6-8.5,12.3-12.5,15.8l-5.9-21.1c2.2-1.4,2.1-0.9,4.3-2l4.5-3.3l-8.5-2.9l0.6-11.2l-9.6,5.7
		l-8.2-4.3c3,15.3,6.2,5.5-3.1,17.8l10.8,2.2l3.2,8.2l3.9-7.2c2.3,5.2,5.4,17.1,4.2,23.4c-0.5,2.6-7.9,13.8-9.9,18
		c-2.8-3.6-3.7-9.9-5-14.8c-1.4-5.1-2-12-5.8-15.9c-2,16.7,9.4,32.5,5.7,42.9l-5,12.9c-19.1-30.2-2.6-18.9-5.9-38.9l-7.7,7
		c-3.5-1-3.7-4.4-11-6.8c2.1,15,5.7,10.1-5.7,16.4c3.1,3.2,8.2,4.3,12.4,5.1l5.6,1.3c3.2,3.1,7.9,13,9.4,20
		c1.1,5.2-2.5,19.3-4.5,23.8c-5.5-4.2-14.3-23.8-19.5-25.1c4.4,12.3,18.5,23.5,19.8,37c-4.7-4-17.3-24.2-22.2-30.5
		c2.6,6.4,9.9,17.2,14.1,23.9c6.4,10.2,9.6,13.6,12.9,27.1c-3.8-2.8-5.2-6.8-9.8-8.7c6.7,10,10.7,12.3,18,24.9
		c4.7,8.1,11.9,18.9,15.4,27.6l-18.8-19.7c-6.2-6.5-12.5-13.4-25.8-9.1c-1.1,5.6-0.6,9.5,2.7,14.2c2.3-2.3,4.1-9.7,5.3-12.6
		c9.1,0.2,12.5,15.1,22.1,22.3c4.7,3.5,7.9,6.4,12.5,10c2.4,1.9,3.4,2.6,6.3,5.1c2.5,2.1,3.9,2.3,4.3,6.2
		c-5.9-0.4-14.9-4.9-19.1-7.3c-6.7-3.7-11-7.7-16.8-12.1c1.2,10.5,11.1,15.2,19.2,19.9c10.2,5.9,22.4,3.2,25.9,12.9
		c-7.5-0.4-11.9-5-21-6.7c-22.4-4.1-31.2,4.9-18.3,12.1c-2.6-5.5-4.1-2.1-3.8-9.4c9.3-1,26.9,5.6,36.4,7.9c7.4,1.8,11,0.8,15.6,5.8
		c3.8,4.2,8.4,6.9,11.5,11.3c-20-1.7-16.5-3.2-29.9-5.7c3.6,6.7,13.7,9.2,22.5,10.7c13.4,2.2,16.5-0.8,23.2,9.5l-37.2,2.4
		c2.3-3.6,1.7-1.5,2.6-5.7c-10-0.4-6.9-1.2-11.8-7.1l-3.5,5.8c-2.3,2-3.3,0.7-6.3,2.4c6.7,8,5.2,1.2,7.6,14.6l5.5-4.2l7.9,3.2
		c-1.2-4.1-2-3.6-1.8-7.6c4.2-0.2,8.1-0.9,11.4-1.3c1.3-0.2,4.1-0.4,5.4-0.4c1.7,0.1,1.1-0.1,2.7,0.4c0.2,0,0.4,0.2,0.6,0.3
		c0.1,0.1,0.4,0.3,0.5,0.3c4.2,2.2,15.8,1.3,22.3,2.5c-4.4,1.9-13.5,1.2-19.4,1.5l10.1,2.1c-1.7,1.1-3.7,1.7-5.5,3.2
		c-2.2,1.7-3.2,4-4.4,4.8c-3.5,2.5-10.5,0.6-14.8,4.2l9.1,4.7l-0.5,9.8c4.1-1.1,4.2-2.6,7.2-4.6l3.9,3.2c0.3,0.2,0.5,0.4,0.8,0.6
		c1.1,0.8,0.9,0.7,0.8,0.7c0.2,0.1,0.7,0.3,2,0.9c-1.2-7.1-5.4-13.1-5-19.9c5.9-6.3,11.9-8,24.1-7.2l-5.1,2.8
		c-2.3,0.9-1.9,0.4-4.3,1.8c8.6,1.9,19.4-5.2,26.5,8.4c-1.3,1.1-2.2,1.6-3.6,2.7c-1.8,1.4-1.9,1.7-4,3.1c-2.7-1.9-3-2.9-5.9-4.7
		l-2.5,7.3l-8.1,1.4c2.3,3.5,3.5,4.1,6.6,5.8l-0.2,10.3c11.1-5.6,3.8-5.2,17-2c-3.2-9.4-4.5-5.9,1.2-13.8c-1.3-1.5-0.2-0.7-2.8-2
		c-0.3-0.1-1.9-0.6-2.7-0.9c9.4-6.8,8-5.6,21.2-3.3l-4.3,4c7.7,0.4,7.7-0.7,13.8-1.5c3.9-0.5,8.8,0.6,9.8,3.7
		c0.4,3-4.5,4.1-6.2,10.6c7.4,0.1,5.5-1.1,8.3-6.8c3.7,5,1.3,7.5,8.8,6.4C305.1,424.9,304.1,424.6,301,420.9z M157.7,271.2l-2.6,4.1
		c-9.8-18.4,3.8-28.6,10.7-39.2C165.7,244.2,161.2,263,157.7,271.2z M167.9,242.7l5.2,4.4l-1.4,8.6l5.2-1.4
		c-2.2,5.6-5.8,11.5-8.4,17.6c-2.4,5.5-3.7,14.1-6.6,19.4C154.6,284.4,166.8,272.7,167.9,242.7z M212.9,361.1
		c-0.5-2.2-1-4.3-1.5-6.6c0-0.2-0.5-2.9-0.5-2.9c0-0.6,0-1,0.1-1.7l0.5-1.5c3.8,3.6,2.1,3.9,3.6,11.4c0.8,4,2.1,7.7,3,11.4
		C214.4,368.6,214.2,366.8,212.9,361.1z"/>
	<path fill-rule="evenodd" clip-rule="evenodd" fill="#FFFFFF" d="M364.1,240.5c-3.2-1.6-4-2.1-6.1-7.8c-3.7,0.8-1.6,1.5-6,1.5
		l-4.2-8.1c-4.1,7.3-14.1,3.2-16.9-1.1c-1.6-2.5-5.5-18.2-5.4-21.9c5.8-0.8,3.1,1.2,8.1,2.3c2.8-3.9,4.3-10,4-15.4
		c-6.3-0.9-10.2,3-16.4,4.5l-4.1-11.7c2.2-3,3.5-2.7,4.6-6.9l-7,2c-3.7-7.2-12.3-26.6-17.2-31c-3.2,3.6-9.8,20.3-12.6,25.7
		c-3.6,7.1-18,7.5-19.8,17.7c2.9-1.9,6-4.9,10.8-5.1c1.6,5.4-5.1,25.9-7.8,31.3c-8.8-2.6,2.5-2.7-7.9-6.4c-4.9-1.8-6.2-3.2-9.8-4.5
		c0.5,12.3,5.3,15.8,15.7,18.8l-3.4,20.6c-4,2.7-15.2,5.8-20.1,2.7c-0.9,4-0.3,7.7,0.7,10.8c8.8,1.8,11.7-2.4,18.7-3.3
		c0.3,10.6,1.9,19,8.2,23.7c10.6,7.9,16.3-4.9,20.9-6.2l0.3,15.7c-14.6,7-44.2-13-52.3-19c-15.4-11.5-30.3-28.4-17.4-47.1
		c9.2-13.4,27.2-25.7,39.4-36.2c13.8-11.8,28.7-22.6,30-46.8c-3.5,1.7-4.9,4.3-9,7.9c-3.4,3.1-5.7,4.9-9.9,7
		c-9.6,4.9-17.2,1.8-13.9,17.6c-9.9,3.4-31.1,21.9-36.3,29.4c-21.6,31.4-8.1,68.6,19.6,90.6c8.6,6.8,27.5,24.1,44.6,21.9
		c2.2-2.5,3.6-4.4,5-8.5l-0.6,26.9c5-9.5,8-43.4,9.1-56.4c2.1-23.6-0.9-37.8-3.7-60.2c6.7,0.7,7.9-0.9,13.1-1.3
		c1.2,8.6,2.7,16.9,3.3,25.5c1.1,14.8-0.7,13.4-4.1,24.6c12.2-4.3,10.1-30.9,7.7-43.4c-1.6-7.8-4.4-9.9,3.2-12.3
		c2.3,12.6,14,55.5-0.7,63.2c-6.9,3.6-12.2-3.6-16.4-6.1c2.2,7,16,22.7,26.5,11.8c9-9.2,5.3-27.4,4.3-40.2c7.1,4.7,9.8,8.1,16.1-0.9
		l2.2,8.8c4.1,0.6,4.7-0.5,7.1,1.2c0.2,0.2,0.9,0.9,1.1,1.1c1.7,1.5-1.5,0.4,2.7,2.1c1.8-2.1,3.5-4.1,4.6-7.8L364.1,240.5z
		 M330.7,198.2c1.3-4.5,0.6-1.9,2.8-2.9c1.7,4.5,1.5,4.5-1.1,6.6C331.3,201.1,329.6,202.1,330.7,198.2z M262.9,161.8
		c1.3-1.2,2.2-1.9,4.6-2.1c-0.1,4.9-1.4,7.9-6,8.1C260.7,163.6,260,164.7,262.9,161.8z M273.4,227.6c3.9,1.2,4.9,1.8,7,4.8
		c-0.4,5.7-3.5,7.2-8.8,9.2L273.4,227.6z M283.5,199.7c0.5,16.4,7.8,42.2,7.3,69.1c-5.1,2.8-9.8,6.7-15.3,0.3
		c-3.7-4.3-5.3-12.4-4.1-19.7c0-0.1,21.1-12,7.4-25.5c-5.4-5.3-3.4-5.6-1.5-13.8c1.4-5.8,3.1-11.1,4.1-16.4
		c11.5-0.1,15-3.5,23.8-5.2l1.7,12.6C294.4,203.5,294.2,202.9,283.5,199.7z M303.1,171.3l0.4,10.7c-7.3,1.5-9.9,3.8-16.9,0.3
		c-1.1-7.4,8.7-24,10.5-32.6c1.5,1.2,0.6,0.2,1.9,2l5.8,13.4c4.5,11.5,7.3,13.2,2.7,15.5C304.5,178.5,305.2,174.8,303.1,171.3z
		 M311,199.4c-1.5-4.4-2.9-8.4-2.6-13l4.1-1.2l3.5,12.8L311,199.4z"/>
	<path fill-rule="evenodd" clip-rule="evenodd" fill="#FFFFFF" d="M373.6,200.3c-7.7-10.8-24.7-24.2-36.5-30.3
		c3.6-14.3-5.3-12.7-14.4-17.2c-9.4-4.7-12.5-11-18.4-15.1c2.3,30.7,27.8,44.7,50.7,64.3c6.5,5.5,13.7,11.8,18.9,19.4
		c14.1,20.6-6.8,38.6-19.2,48.1c-9.5,7.1-26,16.6-38.6,19c-8.6,1.6-10.3,0.7-14.1-4.4c-0.6,10.8,1.3,20.6,7.4,28.7
		C337.3,314.1,412.9,255.1,373.6,200.3z M334,166.3c-4.5,1.3-5.8-2.6-5.7-7.9c2.4,0.6,3.2,0.8,4.6,2.5
		C337.1,165.7,334,166.2,334,166.3z"/>
	<path fill-rule="evenodd" clip-rule="evenodd" fill="#FFFFFF" d="M312.8,59.5l6.9,0.9c2.8-7.6,1.3-20.3,4.9-27.1l3.6,28.1l7.6,0.7
		l10.9-27.2l-2.8,28.7l6.6,0.5c2.4-3.6,5.9-34.3,5.3-40.1l-10.9-1.2c-4.6,5.8-7.4,20.1-11.4,24.7c-3.1-32.3-3.2-27-16-27.9
		L312.8,59.5z"/>
	<path fill-rule="evenodd" clip-rule="evenodd" fill="#FFFFFF" d="M525.2,317.9l-0.7,6.9l16.1,2.6c-0.9,8.6-5.8,10.2-19,15.3
		l-1.6,9.2c7-1.3,13.7-5.1,19.1-9.3c2.1,4.5,1.5,7.7,6.5,10.1c17.3,8.5,18.5-18.9,19.7-29.9C556.7,321.9,531.4,315.2,525.2,317.9z
		 M554.6,344.7c-12.8,2.6-8.4-7.2-7.2-16.1l9.7,1.2L554.6,344.7z"/>
	<path fill-rule="evenodd" clip-rule="evenodd" fill="#FFFFFF" d="M394.8,79.7l6.9,4l12.3-21.1l1.6,29.9l7,2.7
		c3.3-4.7,18.4-31.8,19.1-35.4c-3.8-1.7-2.5-2-6.5-2.3l-10.1,18c-2.3,3.1-0.5,1.1-2.6,2.6l-1.4-29.3l-7-3.9L394.8,79.7z"/>
	<path fill-rule="evenodd" clip-rule="evenodd" fill="#FFFFFF" d="M541.1,272.4c-23.1,4.6-19.5,44.8,12.6,38
		C576.1,305.7,573.1,266,541.1,272.4z M552.4,302.1c-20,4.3-26.3-17.2-9.4-21.2C562.9,276.3,566.9,299,552.4,302.1z"/>
	<path fill-rule="evenodd" clip-rule="evenodd" fill="#FFFFFF" d="M240.2,24.5C214.3,31,224.9,72,251.4,64.4
		C275.2,57.6,266.7,17.8,240.2,24.5z M234.4,46.1c-2.8-18.8,19.1-21.6,22-3C259.4,61.9,236.9,63.2,234.4,46.1z"/>
	<path fill-rule="evenodd" clip-rule="evenodd" fill="#FFFFFF" d="M69.3,146.6c-2.4,2.3-10.1,15.1-11.4,19.2l33.8,20
		c3.6-3.5,10.3-16.1,11-19.4C106.8,148.6,79,137.3,69.3,146.6z M91.1,175.1c-5.3-1.3-18.6-9.3-23-12.7c1.1-5.7,5.5-11.9,12.2-11.2
		c5.1,0.5,12.1,6.1,14.7,8.9C96.3,166.9,93,170.6,91.1,175.1z"/>
	<path fill-rule="evenodd" clip-rule="evenodd" fill="#FFFFFF" d="M359.4,67.8c6.3,1.6,23.9,8.6,29,8.4l1.7-5.2l-21-7.5l2.7-9.9
		c3.8,0.4,6.8,1.5,10.2,2.7l7,1.9c2.7,0.1,1.8,0,2.9-0.3l1.4-5.1c-5.4-2.5-13.8-3.6-18.5-6.8l2.1-7.4c16.5,1.5,20.4,12.9,22.8-1
		l-27.7-8.4C368.4,35.3,360.5,60.1,359.4,67.8z"/>
	<path fill-rule="evenodd" clip-rule="evenodd" fill="#FFFFFF" d="M148.2,62.9c1.8,5.3,16,31.5,19.4,35.2c6-2.2,22.1-10.9,26.2-14.7
		l-2.3-4.8c-7.5,0.6-13.3,7.9-20.8,9.6l-4.5-9.5c5.4-2.3,13.7-6.1,17-10l-2-4.5c-4.9,0.5-13.4,6.2-18,8.4l-4.7-7.3
		c3-1.6,16.4-8.3,18.6-11.3l-2.5-4.7L148.2,62.9z"/>
	<path fill-rule="evenodd" clip-rule="evenodd" fill="#FFFFFF" d="M521.6,233.6l1,6.5l17.7-2.3l2.3,15.6l-16.8,2.9l1,7.8l39.4-6.5
		l-0.7-7.2c-5.8-0.8-9.9,1-15.9,1.4l-2.5-15.2l15.3-2.8l-1.2-7.6c-4.9-0.4-14.4,1.9-19.7,2.8c-2.9,0.5-6.4,1.2-9.7,1.8
		c-1.4,0.3-3.2,0.5-4.8,0.8L521.6,233.6z"/>
	<path fill-rule="evenodd" clip-rule="evenodd" fill="#FFFFFF" d="M505.8,116.7c-7.6,0.8-34.5,8.9-41.9,12.2c1.6,3.6,2,3.9,5.2,6.3
		l9-2.3c3.6,4.6,6.4,7.8,9.4,12.6l-4.3,7.8c1.9,3.8,2.1,4.5,5.2,6.6c3.5-3.9,19.7-32.3,21.5-37L505.8,116.7z M492.1,138.4
		c-0.7-0.4-1.1-0.9-1.3-0.7l-4.3-5.2c-0.1-0.2-0.4-0.6-0.5-0.8c-0.1-0.2-0.3-0.6-0.5-0.9c1-0.7,0.3-0.4,0.2-0.4
		c0.1-0.1,0.6-0.3,2.1-0.9c1.1-0.5,2.3-0.8,3.5-1.2c2.8-0.9,5-1.6,7.8-2.3L492.1,138.4z"/>
	<path fill-rule="evenodd" clip-rule="evenodd" fill="#FFFFFF" d="M84,124l29.3,26.5c4.3-2.7,6.3-7,10.2-10.7
		c3.5-3.4,7-7.5,9.8-11.3l-4.1-4.3c-4.1,2.7-11.9,11.7-14.5,15.8c-3.8-1.5-6.7-3.9-8.5-7c2.1-3,9.8-12.1,12.6-14.4l-5.2-5
		c-3.2,4.4-9.3,11-12.7,14.5l-6.5-5.1c2.9-6.4,10.6-10.3,13.4-17.1l-3.4-3.5C99.9,104.5,85.7,121,84,124z"/>
	<path fill-rule="evenodd" clip-rule="evenodd" fill="#FFFFFF" d="M72.9,236.3l-42,9.9l-1,8.7c7.4,3.6,32.2,19.8,37.8,20.1l0.8-7.5
		l-8-4.6l1.9-15.8C71.3,242.9,72.1,248.9,72.9,236.3z M53.9,259l-11.3-5.6c-1.5-1.1-1-0.8-2-1.9l14.4-3L53.9,259z"/>
	<path fill-rule="evenodd" clip-rule="evenodd" fill="#FFFFFF" d="M541.4,172.7c-0.8-3.5-1.4-3.8-3.4-6.9
		c-9.3,1.9-20.3,14.8-30.3,13.2c-8.3-6.8-4.8-12.1,3.1-16.5c4.6-2.6,15.1-8.1,18.5-11.3l-3.4-6.4c-6.1,2.1-16.5,8.9-21.8,12.1
		c-8.3,5.1-11.7,11.2-6,21.7c4.5,8.3,10.7,12.3,21.7,6.4C527.3,180.8,534.4,175.9,541.4,172.7z"/>
	<path fill-rule="evenodd" clip-rule="evenodd" fill="#FFFFFF" d="M272.2,118.2c12.6,25.1,59,14.8,57.4-17.9
		c-0.4-8.9-5.8-19.1-12.8-22.6c2.9,8.5,11,24.7-3.8,38.2c-4.3,4-11.3,6.7-18.9,7.3C284,123.9,279.5,120.7,272.2,118.2z"/>
	<path fill-rule="evenodd" clip-rule="evenodd" fill="#FFFFFF" d="M90,388.5l-9.8,0l-5.3-14.7c2.4-2.2,5.4-4.8,6.7-8l-2.7-6.3
		c-10.6,7.7-22.2,22.2-31.4,27.3l2.3,9.3l43.1,0.5L90,388.5z M72.1,388.8l-13.9,0.2c1.5-3.4,8.1-8.2,11.1-9.6
		C71,382.7,72.5,385.1,72.1,388.8z"/>
	<path fill-rule="evenodd" clip-rule="evenodd" fill="#FFFFFF" d="M305.2,27.1c-2.9-11.6-18.4-7.9-30.6-8.3l0.7,40.2l7.9,0.1
		l0.1-15.1C295.4,44,309.3,43.3,305.2,27.1z M296.4,35c-3.4,1.5-8.1,2.4-13.3,1.8l-0.1-10.9C292.3,25.4,298.6,24.4,296.4,35z"/>
	<path fill-rule="evenodd" clip-rule="evenodd" fill="#FFFFFF" d="M75.3,347.3l-14.8,2.6c-2.1-10.9-5.9-24.4-20.6-18.1
		c-11.4,4.9-4,20.4-2.3,31.6l39.5-8.7L75.3,347.3z M43.3,353.7c-2.3-4.3-4.9-14,2.5-14.6c5.8-0.5,7,7,7.7,12.7L43.3,353.7z"/>
	<path fill-rule="evenodd" clip-rule="evenodd" fill="#FFFFFF" d="M92.7,432.1c-11.7,7.5-21.4,1.7-16.4-12.3l-5.6-5
		c-13.5,15.2,8.4,40.6,30.8,21.6c12.3-10.5,5.5-31.5-9.8-32c-8.1-0.3-6.3,1.8-4.8,8.1c7.7,1.1,12.6-0.5,13.5,7.7
		C101.1,426,96.4,429.7,92.7,432.1z"/>
	<path fill-rule="evenodd" clip-rule="evenodd" fill="#FFFFFF" d="M130.8,76.3l11.1,27.9c-9-3-20.1-12.8-27.8-14
		c-2,2.7-2.6,2.1-4.7,6.5l36.6,19.9l6.3-4.5c-2-12.6-12.6-29-14.4-40.6L130.8,76.3z"/>
	<path fill-rule="evenodd" clip-rule="evenodd" fill="#FFFFFF" d="M514.3,450.9c8.5-10.1,2.4-6.7-3.2-23.1l18.1,0.1l4.2-7.9
		c-47.2,0.6-23.5-3.5-42.1-8.4l-3,6c5.8,7.4,10.9,3.6,15.7,13.6C505.8,435.1,511.6,448.2,514.3,450.9z"/>
	<path fill-rule="evenodd" clip-rule="evenodd" fill="#FFFFFF" d="M448.1,71.9c3.2,5.1,4.6,3.9,8.4,8c-4.1,8.6-14,17.1-19.5,26
		c2.2,3.4,2.8,3.7,6.1,4.8c3.5-3.3,7.4-8.6,10.4-12.5c3.3-4.3,6.4-8.1,10-12.5c2.3,1.1,2.6,1.6,4.7,3.1c3.5,2.5,1.3,2.1,5.5,2.6
		l2.8-3.4c-2.3-4.9-21.7-19.1-25.2-20.1L448.1,71.9z"/>
	<path fill-rule="evenodd" clip-rule="evenodd" fill="#FFFFFF" d="M505.5,387.1l29.6,13.5c-2,8.8-7.9,11.3,1.8,13.2
		c3.4-4.1,11.4-23,13-29.2l-5-1.6c-3,2.4-3.2,5.5-5.7,9.7c-8.4-1.2-21.6-10.1-31.1-12.7L505.5,387.1z"/>
	<path fill-rule="evenodd" clip-rule="evenodd" fill="#FFFFFF" d="M541.2,186.2l3,11.2c-6,4.3-22.2,7.7-30.7,11.4l2,7.7l31.3-10.5
		l4.3,10.6l6.1-1.8l-9.9-30.1L541.2,186.2z"/>
	<polygon fill-rule="evenodd" clip-rule="evenodd" fill="#FFFFFF" points="27.8,305.5 34.4,305.8 34.6,294 67.8,293.2 68,285.5 
		34.4,285.5 34.1,273.6 27.9,273.6 	"/>
	<path fill-rule="evenodd" clip-rule="evenodd" fill="#FFFFFF" d="M70.4,221.3c-8.6-1.7-24-9.6-31.5-9.4l-1.9,7.3l38,12.7
		c1.6-8.3,8.3-20.1,8-27.6l-5.8,0C74.3,209.3,73.8,216.1,70.4,221.3z"/>
	<path fill-rule="evenodd" clip-rule="evenodd" fill="#FFFFFF" d="M186.7,42.7c1.1,9.2,10.2,27.2,13.4,37.6l26.6-10l-1.8-5.9
		L206,70.8l-12.2-30.1L186.7,42.7z"/>
	<path fill-rule="evenodd" clip-rule="evenodd" fill="#FFFFFF" d="M295.8,335.7c5.5,2.8,9.7,7.2,15.1,9.9c3.2-3.7,7.6-10.8,9.5-14.9
		c-1.9-2.8-0.5-1.1-3-3.2l-12.6-8.3C302.6,324.8,297.5,329.6,295.8,335.7z"/>
	<path fill-rule="evenodd" clip-rule="evenodd" fill="#FFFFFF" d="M515,363.4c4.2,2.7,33.6,12.4,38.6,12.4l1.8-6.6
		c-5.3-3.4-31.1-11.7-37.6-12.5L515,363.4z"/>
	<path fill-rule="evenodd" clip-rule="evenodd" fill="#FFFFFF" d="M217.2,122.8c8,3.5,4.9,3.5,16.3,2.9c0.5-3.4-0.7-7.1-2-9.5
		c2.6-3.4,5.4-3.8,6.2-8.8c-6.2-0.8-4.9-0.2-10.1,1.1c-0.8-4.3-1-4.9-3.4-7.3C218.6,107.3,215.8,112.2,217.2,122.8z"/>
	<path fill-rule="evenodd" clip-rule="evenodd" fill="#FFFFFF" d="M29.5,316l0.5,6.7l40.1-4.4l-0.8-7.9l-30.5,3.5
		c-1.5,0.2-3.6,0.3-5,0.6L29.5,316z"/>
	<path fill-rule="evenodd" clip-rule="evenodd" fill="#FFFFFF" d="M337.4,273.9c9.2-0.6,22-12.9,25.9-17.4
		c13.9-16.2,6.4-12.8,7.1-32.7l-5.1-3.1c-3.1,15.7,18.8,17.6-16.4,41.7C344.2,265.6,339.2,268.9,337.4,273.9z"/>
	<path fill-rule="evenodd" clip-rule="evenodd" fill="#FFFFFF" d="M110.1,250.5c1.7,2.4,2.4,3.3,4.5,5.6l-0.8,8
		c8.6-2.7,4.4-3.2,13.1-0.1c1.7-3.5-0.1,0.5,0.4-2.6l0.7-2.9c4.4,2.2,6.4,4.4,10.6,7.1c-2.5-4.7-5.3-4.6-11-9.6
		c2.1-2.6,3.2-3.2,4.9-6.4l-7.6-0.9l-2.3-5.5c-2.5,1.2-3.7,3.9-4.9,4.7C114.9,250.1,113,249,110.1,250.5z"/>
	<path fill-rule="evenodd" clip-rule="evenodd" fill="#FFFFFF" d="M278.2,77.7c-5.7,0-5.1-1.1-10.1-2.2l4.6,8.9l-5.9,7.4l9.1-1.6
		l5.3,7.9l1.6-9.9l9.1-2.4c-1.4-2.7-5.1-3.4-7.8-4.2l0.5-10.5C283.5,72.6,280.4,75.6,278.2,77.7z"/>
	<path fill-rule="evenodd" clip-rule="evenodd" fill="#FFFFFF" d="M412.6,273.1c2-3.2,2.1-2,6.2-2.8c-1.2-2.2-0.2-2.5-5-5l0.6-9
		c-10.9,4.1-2.5,4.1-14.5,0.5c2.2,12.6,0.7,5.4-3.3,14l7.5,0.8l3.8,6.4c0.5-0.4,0.7-1.1,0.8-0.9
		C408.8,277.7,409.6,274.4,412.6,273.1z"/>
	<g>
		<path fill-rule="evenodd" clip-rule="evenodd" fill="#FFFFFF" d="M303.1,592.1c2.9-4.3,4.3-35.6,4.5-40l-11.3-0.7
			c-1.9,2.6-1.9,3-3.2,6.6c-2.9,7.9-3.3,11.6-7.5,17.2l-4.4-25.4l-12.4-0.3l-2.9,39.8l7.1-0.6l2.9-27.6c6.9,22.8-1.7,30.3,12.5,29.4
			c4.3-6.6,6.2-21.2,10.5-25.5l-2,26.7L303.1,592.1z"/>
		<path fill-rule="evenodd" clip-rule="evenodd" fill="#FFFFFF" d="M382.9,567.3c-1.5-5.1-4.5-5.2-8.4-7.3
			c11.1-21.5-18.3-17.5-31-11.2l9.2,38.6c6.4-0.9,22.2-4.4,26.5-7.7C382.5,577.2,384.4,572.5,382.9,567.3z M353.5,552.9
			c4.9-1.3,8.8-2.8,14.4-1.9l1.3,5.4c-3,3.5-8.6,4.6-14.3,5.2L353.5,552.9z M359.2,578.2l-1.7-9.9c5.8-1.1,16.3-5.7,17.1,1.9
			C375.2,576.6,365.1,578.2,359.2,578.2z"/>
		<path fill-rule="evenodd" clip-rule="evenodd" fill="#FFFFFF" d="M430.1,517.8c-4.8,0.9-14.8,7.8-19.5,10.6
			c0.6,1.6-0.2,1.3,1.7,4.8l18.4,29.5c5.3-1.5,16.5-8.9,19-11.9C459.1,539.3,446.2,514.7,430.1,517.8z M434.1,552.8l-13.5-22
			c9.4-8.3,15.4-7.6,21.2,2.3C448.8,545.3,444.4,548.2,434.1,552.8z"/>
		<path fill-rule="evenodd" clip-rule="evenodd" fill="#FFFFFF" d="M162.9,542.7c-4.5,27,34.5,28.9,29.9,7.1
			c-1.6-7.7-17.5-14.2-12.7-19c3.1-3.2,9.4,0.3,10.7,3.6c2.2,5.6-1.1,6.1,8.2,7.7c1.7-8.5-0.1-12.1-6.6-16.1
			c-5.3-3.2-13.1-5.4-18-0.9c-13.3,12,11.1,20.2,9.9,30.3c-3.6,2.3-6.6,2.7-10.8-0.3c-4.5-3.2-2.4-4.7-4-10.5L162.9,542.7z"/>
		<path fill-rule="evenodd" clip-rule="evenodd" fill="#FFFFFF" d="M329.3,549.6l-8.1,1c-1.4,2.1-1.3,2.1-2.2,5
			c-0.7,2.1-0.9,3.3-1.5,5.3l-8.7,30.9c10.3-0.7,8.4-0.4,10.8-10l16.1-1.2l4.2,8.3l7.9-0.4C348.1,584.3,332.2,555.7,329.3,549.6z
			 M321.7,574.5l3.5-13.7c0.2,0.2,0.5,0.5,0.7,0.7l5.9,12.3L321.7,574.5z"/>
		<path fill-rule="evenodd" clip-rule="evenodd" fill="#FFFFFF" d="M395.6,533.3l-7.5,3l0.3,43l7.9-2.8l0.2-10l14.8-5.3
			c2.5,2.6,3.9,3.9,6.8,6.4l7.5-3.4C417.6,556.7,404.4,539.4,395.6,533.3z M396.2,559.2l-0.6-14.8c3,1.9,8.8,7.8,10.3,11.1
			L396.2,559.2z"/>
		<path fill-rule="evenodd" clip-rule="evenodd" fill="#FFFFFF" d="M255.2,546.8l-8.6-1.4c-3.2,4.3-22.7,30.7-24.3,35.2l8.9,1.3
			c1.5-3.9,2.5-3.4,3.8-7.4c20.7,2,16.4,6.1,17.6,13.3l8.5,1.7L255.2,546.8z M240.5,568.5c1.3-4.1,5.3-9.6,7.6-12.7l2.5,14.8
			L240.5,568.5z"/>
		<path fill-rule="evenodd" clip-rule="evenodd" fill="#FFFFFF" d="M213.6,535.4l-7.6-1.9l-12.3,36.6c3,2.6,21.6,8.9,26.7,9.3
			l1.5-4.8c-3.4-4.2-11.3-3.9-18.5-8L213.6,535.4z"/>
		<path fill-rule="evenodd" clip-rule="evenodd" fill="#FFFFFF" d="M153.5,550.5c2.9-9.9,17.3-25.8,19-34.8l-6-3.2
			c-3,3-18.3,28.8-20.6,34.2L153.5,550.5z"/>
	</g>
</g>
</svg>
