<?xml version="1.0" encoding="utf-8"?>
<!-- Generator: Adobe Illustrator 18.0.0, SVG Export Plug-In . SVG Version: 6.00 Build 0)  -->
<!DOCTYPE svg PUBLIC "-//W3C//DTD SVG 1.1//EN" "http://www.w3.org/Graphics/SVG/1.1/DTD/svg11.dtd">
<svg version="1.1" id="Layer_1" xmlns="http://www.w3.org/2000/svg" xmlns:xlink="http://www.w3.org/1999/xlink" x="0px" y="0px"
	 viewBox="0 0 785 151.7" enable-background="new 0 0 785 151.7" xml:space="preserve">
<g>
	<g>
		<path fill-rule="evenodd" clip-rule="evenodd" fill="#FFFFFF" d="M109.2,103.6c0-3.6-1.1-2.4-2.4-3.6c1-0.6,2-2.3,0.4-2.7
			c0.5,2.1-0.5,2.5-1.6,3.5c2.4,0,3,0.3,3.3,2.6c-0.6,0.7-3.3,2.8-4.1,3.3c-0.2-3.9,0.1-6.5,1.7-9.6c0.8,0.4,0.3,0.1,0.8,0.2
			l-0.8-1.3c-2.9,4.3-2.1,10.7-2.2,11c-1,1.1-4.3,2.6-5.7,3.5c-0.4-0.3,0,0.1-0.3-0.4c-0.2-0.2-0.1-0.2-0.3-0.5
			c-0.3-0.4-0.3-0.6-0.9-0.8c-2.4-0.9-10.2,2.4-4,4.3c-4.4,3-17.7,5.8-23.9,5.7c-9.7-0.1-15.7-2.6-23.8-5.6c1.2-0.5,1.7-0.5,2.4-1.5
			c-0.3-1.5-1.9-2.4-3.6-2.8c-3.9-1-4.1,1.5-4.1,1.5c0,0,0,0.1-0.1,0.2c-1.7-1.2-4.4-2.2-5.9-3.6c-0.1-1.9,0.2-4.6-0.3-6.4
			c-0.5-1.7-1.3-2.9-1.6-4.7c-1.4,1.1-3,3-0.7,4.3c-0.1,0-0.1,0.1-0.2,0.1l-0.4,0.2c-3.2,1.5-0.7,2.3-2.6,8.2
			c-1.1,3.6-3.4,6.8-3.8,8.2c1.7,1.7,5.4,4,7.9,5.4c2.9,1.7,2.3,0.4,5.4,0.7c2.3,0.2,2.8,1,2.9,3.3c7.2,3.2,19.7,5.5,28.4,5.6
			c4.6,0,11-0.8,15.3-1.7c6.9-1.4,7.9-2.3,13.3-3.9c0.3-2.2,0.7-3.2,3.1-3.4c3.3-0.2,2.3,1,5.3-0.8c2-1.2,6.6-3.9,7.8-5.4
			C113.1,114.2,109.3,110.4,109.2,103.6z M105.8,108.7l1.5,0l0.2-1.3l1.6,0.1l0,1.2l-1.3,0.1c0,0.1-0.1,0.2-0.1,0.2
			c0,0-0.1,0.2-0.1,0.2c0,0.1-0.1,0.1-0.1,0.2l-0.3,0.6c-1,0-0.7,0.1-1.4-0.3L105.8,108.7z M86.5,119.1c1.2-0.5,1-0.2,1.4-0.1l0,1.1
			l-2,0.7L86.5,119.1z M79.2,120.6c0.4-0.1-0.1,0.3,0.5,0.4c0,0,0.8,0,1,0l-0.2,1.4l-2,0.4C78.8,122.2,78.9,120.7,79.2,120.6z
			 M63.9,124.1c-0.6,1-0.8,0.9-1.2-0.2C63.1,123.5,63.4,123.7,63.9,124.1z M59.2,122.7l-0.3,0.9c0.8-0.4,0.5-0.3,1.2,0.1l-0.3,1.2
			l-2.1-0.2C58.2,123.9,58.5,122.9,59.2,122.7z M54.1,121.1c0.7,0.1,0.6-0.5,1.1,0.9c-0.9,0.5,0,0.4-0.9,0.2
			c-1.8-0.4-1.5,0.1-1.7-1.1C53.8,120.3,53,120.9,54.1,121.1z M47.9,116.3c0.1,0.2,0.6-0.6,0,0.9h1.3l-0.2,1.5l-2.6-0.3
			C46.8,118,47.3,117,47.9,116.3z M37.9,115l1.5-0.2l0.4,1l-1.1,0.3l-0.8-0.8c-1.4,0.3-1.2,0.6-1.7-0.8
			C37.1,113.8,37.6,114,37.9,115z M34.3,111.1l1.6,0l0.4,1l-1.4,0.3l-0.3-1c-1.2,0.1-1.9,0.6-1.8-0.9C34.1,109.9,34,110,34.3,111.1z
			 M30.3,101.2l2.2-0.6c-1.3-1-2.8-1.8-0.9-3.5c2,2.5,1.8,6.7,1.9,9.7l-3.3-2.5C28.4,102.7,29.9,101.4,30.3,101.2z M28.9,113.4
			l-1.4,0.5c0.3,1.9,0.9,2.2,3.2,2.2c0-0.1-0.1-0.2-0.1-0.2c-0.8-1.2-0.6-0.3-0.8-0.9c0-0.1-0.1-0.1-0.2-0.3l1.7-0.3
			c0.5-0.8-1-2,2.2-1.7c-0.1,1.3-0.8,1.9-2,2.3c0.2,1,0.3,0.4-0.1,1.3C26.9,118.7,24.6,113.7,28.9,113.4z M34.7,117.3
			c-0.7,0.3-3,2.8-5,0.2c6,0.4,3,0.1,4.8-1.7c1,0.1,0.5,0,1.2,0.6c2.9,2.5,2.6,0.5,3.8,1.6C36.7,119.3,37.2,119,34.7,117.3z
			 M37.3,122.4c1-0.9,2.3-1.1,3.2-3.7c2.3-6.6-2.1-10,2.4-9.7c1.9,0.1,3.6,1.1,4.1,2.2c-0.6,1.4-1.8,1.1-3.1,1.5L41,125.1
			C40.5,123,39.6,122.6,37.3,122.4z M42.4,120.9c0.5-0.6,1.3-1.3,2.1-1c-1.1,0.6-0.5-0.2-1.2,0.8c0.4,1.6,1.1,1.8,3.1,1.7l-1-1.2
			c0.6-0.2,1.7-0.2,2-0.5c0.6-0.5,0.2-0.8,0.5-1.6l1.1,0c-0.1,1.6-0.5,1.8-1.8,2.3c0,0.8,0.2,0.4-0.1,1.3
			C45.2,123.7,42.4,123.9,42.4,120.9z M45.6,123.7l1.8,0.2c0.6-0.9,0.2-0.9,0.9-1.6l0.1,0.8C48.3,124.8,46.4,125.7,45.6,123.7z
			 M53.4,126c0,0-0.1,0.1-0.1,0.1c0,0-0.1,0.1-0.1,0.1c-0.7,0.7,0.1,0.9-1.5,0.7l-0.5-1.5c-1.1-0.4-1.7-0.5-2.4-1.2
			c0.1-1,1.1-2.9,2-3.4c-0.3,1-0.9,1.8-0.9,2.7l1.3,0.5c0.9-1,0.4-0.9,2.1-1.1c-0.4,1.9-0.2,1.4,0.1,1.8c0.7-0.3,0.5-0.5,1.2-0.9
			C53.9,126.6,54.3,125.4,53.4,126z M55.2,124.2c0.4-1.7,0.2-1.4,1.5-2.1c-0.5,1.9-1.3,3.8-2.4,4.9C54.6,126,54.9,125.1,55.2,124.2z
			 M69.6,129.5c0.5,0.7,0.4-0.2,0.2,1.1c-0.5,0.1-0.9,0.1-1.1-0.4C68.3,129.3,69.4,129.5,69.6,129.5c-1-0.8-0.8,1-1.7-0.8
			c1-1.1,0.4-0.2,1.3-0.3c0.4,0,0.6-0.7,1.2,0.6C69.8,129.7,70.5,129.2,69.6,129.5z M71.3,127.3c-3.8,0.2-0.4-1-3.4,0.3
			c-1.5,0.7-1.9-0.3-4.5-0.4c-1.9,0-6,0-7.3-1c0-0.8,0-0.9,0.4-1.4c0,0,0,0,0,0c-0.2-0.3,0.7,0,0,0c0,0.1,0.1,0.1,0.2,0.3l0.2,0.2
			c0.3,0.2,3.4,1.3,4.4,0.2l0.2-0.4c0.1,0,0.1,0.1,0.1,0.2l1,0.9c1.1-0.4,0.3,0.1,1-1.1c1.4,0.7-0.2,0,0.8,0.8c0,0-0.4,0.5,0.9,0.3
			c0.9-0.2,0.8-0.8,1.8-1.3c0.8,0.4,0.7,0.5,1.3,1.1c0.9-0.4,0.1,0.2,0.9-0.9c0,0.1,0.1,0.1,0.1,0.2c0.1,0.5,0.6,0.8,1,0.9
			c0.1-2.1-0.8-3.1,0.2-4.7c0.4,0.4,0.5,0.6,0.7,1.6c0.3,2.5-0.2,3.3,1.1,3.1c1.1-0.2,0,0.2,0.8-0.8c0.2-0.2,0.3-0.4,0.3-0.5
			c-1.1,0.5,0.2-0.5,0,0c0,0,0.1,0,0.1-0.1c0.3,0.8,0.7,1.2,0.2,2.5C72.2,127.6,72.1,127.2,71.3,127.3z M72.7,130.2
			c-0.8,0.2,0.1,0.7-0.8,0.2c-0.8-0.4-0.2-0.4-0.4-1c0.5-0.2,1.8-0.5,2.6-0.2C73.7,130.6,73.6,130,72.7,130.2z M74.7,128.4
			c1.5-1,1.2,0.4,1.7-1.1l-0.4-0.2c-0.9-0.2-1.1,0-1.5-0.7c-0.4-1,0.1-1.8,0.5-2.3c2.2,0.4,0.2,1.5,2.5,1c-0.3-1.2-0.4-1.1-0.2-2.5
			c2.4,3.1,0.3,3.4-0.4,3.9C77.4,130.3,75.2,129.4,74.7,128.4z M79,129.9c-0.6,0.1-0.5,0.7-1.5-0.2c0.5-1.5,0.1-0.5,1.3-0.7
			c0.6-0.1,0.4-0.6,1.3,0.2C79.6,130.6,80,129.7,79,129.9z M79.2,127.6c-0.3-2.3,0.3-0.6,1.3-2.6l-1.3-0.2l-0.2-1.2l2,0.5
			C81.5,126.1,81,127.2,79.2,127.6z M82.1,125.7c1.1,2.2,2.4,2.2,3.2,1.1c1.3-2.3-2.5-4.8-1.5-7c0.8,1.1,0.9,2.9,2.2,3.5
			c0.8-0.4,0.6,0.2,0.7-1.3c0.5,0.4,0.5,0.5,1.3,0.7c-0.2-1.4,0.1-1.2,0.4-1.5c0.4,1.5,0,0.8,0.9,1c0.4-0.5,0.3,0,0.5-1.3l0.5,0.4
			c0.7,0.5-0.2,0.1,0.8,0.6c0.3-0.7,0.1-0.5,0.3-1.3c0.9,0.7,0.8,0.7,2.2,0.4l-1.4-1c-2.9-1.7,2-3.8,2.3-3.8c0.2,1.7-0.5,1-1.6,2
			c-0.6,0.5-0.3,0.3-0.6,0.8c1.4,1,2.4,0.8,2.5,2.7c-1.2,0.4-1.2,0.6-2.5,0.2c-0.5,1-0.1,0.5-1.5,1l-0.6,0.2
			c-0.2,0.1-0.8,0.2-0.9,0.2c-0.1,0-0.6,0.2-0.7,0.2c-1.1,0.3-0.5-0.2-1.7,0.5c-0.4,0.2-0.7,0.3-0.9,0.4
			C88,130.6,81.2,129.1,82.1,125.7z M89.8,124.3c-0.2,0.9-0.2,0.6-0.8,1l-0.3,0.2c-0.3,0.2,0.1,0.7-1.2,0.2c0.1-1.4,0-0.5,0.3-0.9
			c0.1-0.1,0.3-0.1,0.3-0.2c0.9-0.7,0.2-0.6,1-0.6C90.4,123.9,89.3,124,89.8,124.3z M90.2,126.2c0.2-2.4-0.4-0.1,1.4-1.7l0.3-0.3
			c1.3-0.5,0.7,0.3,0.9,0.6c-0.7,1.2,0-0.2-1.3,0.9C91,126.1,92,126.3,90.2,126.2z M92,126.8l0-1l1.1,0l0,0.9L92,126.8z M94.2,123.7
			c-0.7,0.3-0.6,0.3-1.3,0c0.1-1.6-0.5-0.6,0.8-1.2c0.6-0.3,0.4-0.7,1.5,0.1C95.1,123.1,95.3,123.2,94.2,123.7z M97.2,125.3
			L94.4,113c-1.1-0.7-1.7,0-3.2-1.4c0.3-1.6,2.4-2.4,4.2-2.5c3.3-0.2,1.8,1.9,1.7,3.6c-0.3,3.9,0.5,8.4,3.7,9.3
			C99,123.5,98.1,121.6,97.2,125.3z M108.2,118.1l-1.5,0l-0.3,1.2c-1.4,0-1-0.1-1.4-0.4c0.2-1.3-0.3-0.9,1.4-0.9l0.2-1.3l1.6,0.1
			L108.2,118.1z M107.8,113.5c-0.9,0.2-0.2-0.2-0.8,0.3c-0.1,2.4,0.7-0.6,0.8,1.7c-0.8,0.5-2.5,0.5-3,0.1c-0.5,0.7,0,1.2-1.1,1.2
			c-0.8,0-0.4-0.3-1.4-0.7l-0.9,0.7c0,0-0.1,0.1-0.2,0.1c0.8,2.2,0.5,3.3-1.6,3.8c0.6-1.1,1.3-1.4,1.2-3.3c-0.8-0.6-0.9-0.1-1.3-1.4
			l1.7-0.5c0.5-1-0.1-0.4,0.5-1.4c0.3,0.2,0.1,0.1,0.4,0.4c0.9,1,0.5,0.8,1.5,1c0.3-0.9-0.1-0.4,0.3-1.5c0.9,0.6,0.5,0.7,1.6,0.9
			c0.5-0.7,0.4-0.6,0.6-1.7c-1.4,0.6-1,0.9-2-0.2c0.6-0.6,1.6-1.2,2.5-1.4c1,1.1,0.7,2.1,2.7,0.3c-0.5-1.7-1.1-0.2-0.7-2.3
			C110.2,110.6,111.7,112.7,107.8,113.5z"/>
		<path fill-rule="evenodd" clip-rule="evenodd" fill="#FFFFFF" d="M111.8,61.7l-0.5,1.4l-1.9,0.2c0.3,0.8,0.7,0.9,1.1,1.6
			c-3,2.6-2.7,2.2-5.7,5.2c1.2-5.2,4.7-8.1,6.5-12.4c-1.9,1.9-3.2,5.1-5.2,7.2c0-3,4.1-6.3,4.7-9c-2.1,1.2-2.5,4.9-4.8,6.2
			c-1.2-6.5-1.6-5.3,1.3-10.8c1.4-0.2,3.5-0.4,4.4-1.5l-1.9-0.9l0.6-3l-2.2,1.4c-0.3,0.3-0.1,0.2-0.5,0.4c-0.3-0.4-0.5-0.7-0.8-1
			c-0.1-0.1-0.5-0.4-0.5-0.4c-0.2-0.1-0.2-0.2-0.2-0.2c-0.1,0-0.2-0.1-0.5-0.2c0.1,1.6,0.4,2.9,0.9,4.4c0.2,0.6,0.3,0.7,0.3,0.7
			c0,0-0.1-0.1-0.3,0.2l-2.1,3.7c-0.3,0.4-0.1,0.2-0.4,0.5c-0.9-3.3-1.8-3.4-0.7-6.8c0.7-2.1,1.6-5,0.8-7.2l-2.3,7.8
			c-0.3-0.3-2.4-3.9-2.5-4.3c-0.2-1.1,0.1-2.3,0.3-3.3c0.1-0.4,0.2-1.1,0.3-1.4c0.1-0.3,0.1-0.4,0.2-0.6c0.2-0.4,0.1-0.3,0.4-0.5
			l0.6,2l0.9-2.2l2.6-0.5c-0.4-0.7-0.9-1-1.6-1.7l0.8-2.6c-0.8,0.3-1.2,0.7-2.1,1c-0.4-0.3-0.6-0.4-1.1-0.8
			c-0.6-0.4-0.5-0.4-1.1-0.7l0.1,2.9c-0.7,0.3-1.2,0.5-2,1l2.1,1c-0.1,1.4-0.8,4.3-1.6,5.2c-1.1-1.3-1.8-2.4-2.8-3.7
			c-1.1-1.5-2.2-2.1-1.2-4.7c3.6-0.1,2.2,0,4.6-1.4c-0.6-0.8-1.4-1-2.5-1.3c-0.2-1.6-0.1-1.7-0.9-2.5c-0.9,0.6-0.6,0.7-1.4,1.5
			c-0.9-0.6-1.6-1-3-1.3c0.7,2.4,1.5,3.4,2.9,4.7l-0.8,2.3c-1-1.2-2.3-5-3.5-6.8c0,1.4,1.3,3.6,1.7,5c-0.8-1.4-2.5-1.8-2.7-3.7
			c-0.2-2.2-0.6-3-1.9-4.4l-0.8,1.9c-1.2-0.3-1.2-0.6-2.3,0l1.5,1.6c-0.2,1.1-0.7,1.5-0.5,2.6c2.1,0.1,2.3,0.3,3.7-0.7
			c0.7,0.9,2,2.1,2.5,3l-3.7-0.9l1,0.8c1,0.5,2.5,0.6,3.3,1.1c0.5,0.3,1,1,1.6,1.5c0.7,0.6,1,0.9,1.4,1.7c-0.4,0-0.8,0-1.1,0
			c2.9,0.5,6.4,7.1,7.2,8.7c-0.9-1.1-4.3-3.7-6.5-4.1c0.6,1.5,4.4,4.2,5.7,5.2c2.6,2,3.4,3.6,4.1,6.9c-1-0.5-5.8-6-7.3-7.5
			c-0.9-0.9-0.1-0.4-1.2-0.9c0.5,1.4,1.6,2.6,2.4,3.5c2.5,2.9,1.4,2,2.8,2.4c0,0.1,0,0.2,0,0.3c0-0.1,0-0.1-0.1,0l-1.4,0.4
			c-0.9,0-0.7-0.5-1.8-0.6l0.3,1.7l-1.3,1c0.6,0.4,1.1,0.4,1.4,0.9l0.5,1.3c0,0,0.1,0.2,0.1,0.2l1.1-0.9l0.9,1.1h0.7
			c-0.3-1.2-0.2-0.4-0.9-1.4c0.7-0.4,0.7-0.3,1.6-0.4c-0.9-1.1-1.3-0.6-1.1-2.5c0.9,0.5,1.2,0.9,1.9,1.7c2.6,3.2,2.6,1.7,2.7,6.5
			c-0.8-0.4-3.1-2.9-3.6-3.7c-0.1,0-0.9,0.3-0.9,0.4l0.2,1.5c-2.5-0.1-1.9-0.4-3.4-1.4l-0.6,1.7l-1.9,0.2c1,1.8,1.2,0.6,1.6,3.2
			l1.5-0.5c2.8,5.1,5.5,9.4,1.7,13.6c-0.3-1.4-0.6-3.3-0.9-4.9l-1.5-4c0-0.1-0.1-0.1-0.1-0.1c0.6,3.7,2.5,7.5,1.2,11.6l-2.1-3.5
			c-0.5-1.6-0.3-3-0.5-4.8c-1.2,2.4-0.4,6.5,0.4,9c0.7,2.2,0.8,2.3-0.4,3.9c-0.5,0.7-1.4,2.2-2.1,2.7l-1.9-9l1.3-0.5l-0.6-0.6
			c-0.8-0.9-0.5-1.4-0.7-2.7l-1.2,1.2l-2.1-0.8c0.4,2.7,0.1,1.8-0.8,3.7l1.9,0.1l1,1.5l0.8-1.3c0.8,2.2,1,3.1,1.2,5.9
			c0.2,2.8,0.4,4.2-1.4,5.4c1.3-3.6,1.4-5.6,0.6-9.5c-1.1,1.1-0.5,3.6-1.1,5.3l0.2-2.2c-1.4,1.2-0.4,1.1-1.2,0.8
			c0,0-0.4-0.1-0.4-0.3c0-0.1-0.1-0.1-0.2-0.2l-0.2,1.4l-1.5-0.7l0.1,1.8c0.6,0.4,0.7,0.3,1.4,0.8c0.1,5.6-3,7.7-7.1,10.1
			c0.7-1.6,1.9-2.8,2.7-4.6c0.8-1.8,1.8-3.1,2.5-4.7c-1,0.6-2.5,2.7-3.1,3.8c-1.8,2.9-2.4,6.3-5.5,8.2c-1.1,0.7-3.2,1.6-4.8,1.6
			c1.8-1,1.8-4.6,4.5-6c2.7-1.4,4.2-1.6,5.8-4.8l-1.2,0.8c0.2-1.5,2.5-1.6,3.2-4.9l-2.5,1.2L82.7,87c-0.5,0.6-0.7,1.2-1.3,1.6
			c-1.1-0.6-0.8-0.9-2-1.5c0.3,2.9,1,3.2,2.5,4.7c-0.1,0.8-0.2,1.4-1,1.7c-1.2,0.5-0.7-0.2-1.7-0.8C79,94.4,79,94.5,78,95.3
			c-1,0.8-1,1.2-2.3,1.6C75.1,96,75,96.3,74.8,95c1.7-1.4,2.8-1,3.2-3.1c-1.5,0.6-2.9,1.6-3.7,3c-1.2,2.2,1.2,1.4,0.2,5.1
			c-0.5,0.3-0.5-0.1-0.7,0c-0.4,1.8-1.2,2-2.5,2.9c-0.1,0.1-0.4,0.2-0.5,0.3c-0.3,0.2-0.3,0.3-0.5,0.4c1.3,0.6,0.2-0.4,2.2,0
			c1.5,0.3,1.5,0.4,3.1,0.2l-1.4-0.8c3.2-0.8,3.2-0.6,5.3,0.6l-1.4,0.9c0.5,0.5,0.7,0.6,1.2,1.3l-0.7,2l2.3-0.7
			c0.8,0.5,0.7,0.6,1.8,1.1c-0.1-1.9,0-2.2,1.1-3.3l0.4-0.4c-0.8-0.3-1.4-0.1-1.9-0.6l-0.8-1.5c0-0.1-0.1-0.1-0.1-0.2
			c-0.4,0.6-0.5,0.8-1.3,1.2c-0.6-0.5-0.9-0.6-1.6-1.4c0.3-0.8,1.4-1.8,2.3-2c1-0.3,2.8,0.2,4,0.1c-0.7-0.5-1.8-0.7-2.4-1.2
			c9-0.6,5,4.4,4.8,6.6c0.8-0.5,1.2-0.6,1.8-1.6c0.4,0.5,0.5,0.9,1.4,1.2c0.6-1.1,0.3-1.1,0.1-2.2l2.1-1.2l-1.6-0.6
			c-3.2-0.5-1.2-1.2-4.2-2.3l1.8-0.6L85.3,98c-0.4-0.1-0.4,0.1-0.6-0.2l5.2-0.3c0,0,0-0.1,0-0.2c0-0.1,0-0.1,0-0.1
			c0,0,0-0.1,0.1-0.1c7.1-0.3,4.9,1.2,4.6,2.2c2.9-0.8,0.8-1,3.3,0.3c0.2-1.5,0.2-2,1.2-3l0.3-0.3c0,0,0.1-0.1,0.1-0.2
			c0-0.1,0.1-0.1,0.1-0.2c-2.5-0.5-1.3,0.1-2.3-2.1c-1.4,1.5-0.4,1.7-3.1,2l0.7,1.3l-9-0.6c1.7-2.6,2.6-1.7,6-2.4
			c2-0.4,4.4-1.1,5.2-2.6c-3.1,0.5-2.8,1.2-7.3,1.4c0.7-1.1,1.8-1.9,2.8-2.8c1.3-1.2,11.4-3.5,12.6-3.1c0.1,1-0.2,1.1-0.6,1.9
			c0.6-0.3,0.6,0,1-1c0.2-0.7,0.1-0.7,0-1.3c-1.6-0.7-3.9-0.7-5.9-0.4c-2.1,0.4-3.1,1.5-4.9,1.6c0.8-2.4,3.7-1.6,6.5-3.2
			c2.1-1.2,4.3-2.4,4.5-5.1c-1.6,2-6,5.1-8.9,5c0.3-1.1,1.7-1.9,2.6-2.6c1-0.8,2-1.6,3.1-2.4c2.5-2,3.4-5.4,5.2-5.5
			c1.1,1.1,0.6,1.8,1.4,3c0.8-0.6,1.1-2.1,0.8-3.3c-2.9-1.3-5,0.7-6.6,2.2c-1.5,1.4-3.3,3.3-4.6,5.1c1.6-2.8,3.1-5.8,4.9-8.6
			c1.3-2.1,4.7-6,6.8-6.9l0.3,1.3c2.2-1,0.8-0.7,3.1,0c-0.2-1.5-0.3-1.7,0.5-2.8l0.3-0.4c0-0.1,0.1-0.1,0.1-0.2
			C112.2,63.1,113.3,63.1,111.8,61.7z M88.5,92.8c0.3-1.5,0.6-4.9,1.8-5.6C90.2,88.9,89.9,91.8,88.5,92.8z M102.2,73.6
			c-0.4-0.6-1.2-3.7-1.7-4.8c-0.7-1.6-1.6-3-2.1-4.4l1.2,0.4c0-2.1-0.7-1.2,0.5-3.1c0.5,0.5,0.3,0.1,0.6,0.9l0.9,5.4
			C102.2,70,103.3,71.9,102.2,73.6z M103.6,69.6c-0.9-3-2.1-5.8-2.4-9.5C103.3,61.8,106.2,67,103.6,69.6z M106.1,46
			C106.2,46,106.2,46,106.1,46L106.1,46z M92.7,39.7c0.2,0,0.4,0,0.7,0C93.2,39.6,93,39.6,92.7,39.7z M90.2,38.5
			c-0.9-0.8-2.4-1.3-3.8-1.2c0.4,0.8,0.9,1.7,1.3,2.4c-0.8,0.6-0.9,0.5-0.9,2l2.2,0.1c0.3,0.9,0.9,1.8,1.7,2.4l0.8-3.1
			c0-0.1,0-0.2,0-0.2l0.1-0.4c0-0.1,0-0.1,0.1-0.2c0.3-0.2,0.6-0.4,0.9-0.4C91.7,39.7,91.4,39.5,90.2,38.5z M89.9,97.5L89.9,97.5
			C90,97.9,90.1,96.8,89.9,97.5z"/>
		<path fill-rule="evenodd" clip-rule="evenodd" fill="#FFFFFF" d="M69.9,105c-0.5-0.6-0.2-0.4-0.9-0.8c-1.7-1-4.1-1.8-4.7-3.8h-0.6
			c-1.4-3.8,1-3,0.3-5c-0.5-1.4-2.3-3-3.9-3.4c0.5,1.8,1,1.4,2.4,2.4c1.6,1.1,0.3,1.8-0.5,2.5c-0.7-0.7-1.1-1-2-1.7
			c-1.6-1.2-0.6-0.9-1.3-2.5c-0.9,0.9-0.1,0.7-1.4,1c-2.5-2.2,0.9-2.2,1.4-6.6l-2.1,1.5c-0.7-0.8-0.6-0.8-1-1.6l-1,1.7
			c-0.7-0.4-1.4-1-2.4-1c0.8,3,2,2.8,3.2,4.1C55.4,92,55.3,92,55.3,92c0,0,0-0.1-0.4-0.1c-0.7,0,0.1-0.3-0.4-0.1
			c2.3,3.8,2.6,2.7,5.7,4.6c2.6,1.6,2.9,5.3,4.5,6c-2.5,0.1-5.7-1.6-7-3.5c-1.5-2.3-2.2-4.7-3.8-6.9l-3.1-4c0.7,2.3,4.4,7.8,5.6,10
			c-0.9-0.4-4.1-2.7-4.9-3.4c-1.2-1-2.3-4.6-2.2-6.7c1.2-0.8,1.5-0.6,1.4-2.5l-1.4,0.6l-0.2-1.4c-0.9,0.6-0.7,1.4-1.3-0.2l-0.6,1.6
			c-0.1-1.4,0.2-3.6-0.6-4.8c-1.7,2.5-0.4,6.7,0.4,9.4C44.2,89.2,46,81,47,79.6c0.1,0.1,0.3,0.4,0.3,0.5c0.4,0.5,0.3,0.4,0.7,0.7
			l0.6-1.5l1.8-0.1c-1-2-1.3-0.7-0.8-3.6l-1.8,0.6L47,75.6c-0.1,0-0.1-0.1-0.2-0.1l-0.5-0.3c0.1,3.1,0.1,1.4-1.2,3.2l1.4,0.5
			c-0.5,1.7-0.9,2.4-1.2,4.4c-0.2,1.4-0.4,3.5-0.8,4.6c-0.9-0.8-1.5-1.9-2.1-3c-1.1-1.7-0.8-1.7-0.1-3.9c1.2-3.8,1-5.3,0.2-9.2
			c-0.2,3.4,0.1,6.6-2.3,8.7c-1.4-1.8-0.1-10.1,1.4-11.5l0.7,1.3c1-1.6,0.8-1.5,2.3-2l0.6-0.3c-0.4-0.5-0.7-0.6-1.2-1l0.3-2.2
			c-0.9,0.4-1.1,0.6-2.2,0.7l-0.8-0.8l-0.5,0.2c0.3,2.3,0,1.9-1,3.1l1.4,0.5c-1.9,4.7-1.8,8.1-2.5,9.4c-3.7-4-0.1-11.1,1.9-13.6
			l0.8,0.4c1.1,0,0.5-0.5,1-1.5c0.5-1,0.6-0.5,1.2-1.6l-1.9-0.3L41,59.8c-1.8,0.8-0.7,1.4-3.4,1.5l-0.5-2.2c-1.4,0.8-2.4,2.9-4,3.7
			c0-2.8,0.1-3.3,1.4-4.9c0.7-0.8,2.2-2.5,3.1-3c0.1,2.6,0.1,0.8-1.1,2.3l1.4,0.5c0,0,0.1,0,0.2,0.1c-1,0.7-0.7,0.2-0.9,1.5
			c1.2-0.6,0,0.1,0.9-0.7c0.4-0.3,0.1-0.2,0.8-0.5c0.3,0.3,0.2,0.2,0.5,0.5l0.6,0.6l0.3-1.9l1.5-0.5l-1.3-1l0.2-1.9
			c-0.8,0.3-1,0.8-1.6,0.8c-1.4,0-0.3-1-1.6-0.2c0-0.1,0-0.1,0-0.1c0.1-0.1,0.3-0.2,0.5-0.4c0,0,0.1-0.1,0.1-0.1
			c0.3-0.3,0.4-0.4,0.7-0.7c1-1.1,3.5-3.9,3.8-5.1c-2.7,1.9-6.1,6.6-8.5,8.4c0.2-1.4,0.8-2.8,1.3-3.9c1.1-2.7,7.5-5.5,8.5-8.2
			c-1.5,0.4-3.5,1.7-4.7,2.6c-0.7,0.5-0.8,0.7-1.5,1.1c0.6-1.7,2.1-3.8,3.2-5.2c1.4-1.9,1.9-3.2,5.3-2.8c0.5,1.6-0.1,2.5,1.2,4
			c0.7-0.6,1-1.2,1.6-2.2l2-0.1c0.2-1.2-0.1-1.4-0.8-2.1c0.4-0.7,0.9-1.4,1.3-2.5c-6.3,0.9-1.7,2.5-8.1,2.6c3-4.9,4.8-2.6,7.3-5
			l-3.6,0.8c0.8-1.1,1.8-1.9,2.2-3c-1.3,0.6-1.6,1.7-2.7,2.5l1.7-4.5c-0.1,0-0.2,0-0.2,0.1c0,0.1-0.1,0.1-0.2,0.2l-0.3,0.4
			c-1.2,1.9-1.7,4.3-3,5.9l-0.6-2.4c1.5-1.7,2-2.2,2.9-4.8L44,31.2c-0.4-0.6-0.4-0.7-1.1-1.4c-1.1,0.7-0.9,1-1.2,2.5l-2.5,0.9
			c0.9,1.6,2.4,2,4.5,1.7c1,3,0.5,2.6-1.1,4.7c-0.9,1.1-2.1,3-3,3.9l-1.4-5.1c0.5-0.3,0.5-0.2,1-0.5l1.1-0.8l-2.1-0.7l0.2-2.7
			L36.1,35l-2-1c0.7,3.7,1.5,1.3-0.8,4.3l2.6,0.5l0.8,2l1-1.8c0.6,1.3,1.3,4.2,1,5.7c-0.1,0.6-1.9,3.4-2.4,4.4
			c-0.7-0.9-0.9-2.4-1.2-3.6c-0.3-1.2-0.5-2.9-1.4-3.9c-0.5,4.1,2.3,7.9,1.4,10.4l-1.2,3.1c-4.6-7.3-0.6-4.6-1.4-9.5l-1.9,1.7
			c-0.9-0.2-0.9-1.1-2.7-1.6c0.5,3.7,1.4,2.4-1.4,4c0.8,0.8,2,1.1,3,1.2l1.4,0.3c0.8,0.8,1.9,3.2,2.3,4.9c0.3,1.3-0.6,4.7-1.1,5.8
			c-1.3-1-3.5-5.8-4.7-6.1c1.1,3,4.5,5.7,4.8,9c-1.1-1-4.2-5.9-5.4-7.4c0.6,1.6,2.4,4.2,3.4,5.8c1.6,2.5,2.3,3.3,3.1,6.6
			c-0.9-0.7-1.3-1.7-2.4-2.1c1.6,2.4,2.6,3,4.4,6.1c1.1,2,2.9,4.6,3.7,6.7l-4.6-4.8c-1.5-1.6-3-3.3-6.3-2.2
			c-0.3,1.4-0.1,2.3,0.7,3.4c0.6-0.6,1-2.4,1.3-3.1c2.2,0.1,3,3.7,5.4,5.4c1.1,0.9,1.9,1.5,3,2.4c0.6,0.5,0.8,0.6,1.5,1.2
			c0.6,0.5,1,0.6,1,1.5c-1.4-0.1-3.6-1.2-4.6-1.8c-1.6-0.9-2.7-1.9-4.1-3c0.3,2.6,2.7,3.7,4.7,4.9c2.5,1.4,5.5,0.8,6.3,3.1
			c-1.8-0.1-2.9-1.2-5.1-1.6c-5.4-1-7.6,1.2-4.4,3c-0.6-1.3-1-0.5-0.9-2.3c2.3-0.2,6.5,1.4,8.9,1.9c1.8,0.4,2.7,0.2,3.8,1.4
			c0.9,1,2,1.7,2.8,2.7c-4.9-0.4-4-0.8-7.3-1.4c0.9,1.6,3.3,2.2,5.5,2.6c3.3,0.5,4-0.2,5.7,2.3L43.2,97c0.6-0.9,0.4-0.4,0.6-1.4
			c-2.4-0.1-1.7-0.3-2.9-1.7l-0.9,1.4c-0.6,0.5-0.8,0.2-1.5,0.6c1.6,1.9,1.3,0.3,1.9,3.5l1.3-1l1.9,0.8c-0.3-1-0.5-0.9-0.4-1.8
			c1,0,2-0.2,2.8-0.3c0.3,0,1-0.1,1.3-0.1c0.4,0,0.3,0,0.6,0.1c0,0,0.1,0.1,0.1,0.1c0,0,0.1,0.1,0.1,0.1c1,0.5,3.8,0.3,5.4,0.6
			c-1.1,0.5-3.3,0.3-4.7,0.4l2.4,0.5c-0.4,0.3-0.9,0.4-1.3,0.8c-0.5,0.4-0.8,1-1.1,1.2c-0.9,0.6-2.6,0.2-3.6,1l2.2,1.1l-0.1,2.4
			c1-0.3,1-0.6,1.8-1.1l1,0.8c0.1,0,0.1,0.1,0.2,0.1c0.3,0.2,0.2,0.2,0.2,0.2c0,0,0.2,0.1,0.5,0.2c-0.3-1.7-1.3-3.2-1.2-4.8
			c1.4-1.5,2.9-2,5.9-1.8l-1.2,0.7c-0.6,0.2-0.5,0.1-1,0.4c2.1,0.5,4.7-1.3,6.5,2c-0.3,0.3-0.5,0.4-0.9,0.7c-0.4,0.3-0.5,0.4-1,0.8
			c-0.7-0.5-0.7-0.7-1.4-1.2l-0.6,1.8l-2,0.3c0.6,0.8,0.9,1,1.6,1.4l0,2.5c2.7-1.4,0.9-1.3,4.1-0.5c-0.8-2.3-1.1-1.4,0.3-3.4
			c-0.3-0.4-0.1-0.2-0.7-0.5c-0.1,0-0.5-0.1-0.6-0.2c2.3-1.7,2-1.4,5.2-0.8l-1.1,1c1.9,0.1,1.9-0.2,3.3-0.4c1-0.1,2.1,0.1,2.4,0.9
			c0.1,0.7-1.1,1-1.5,2.6c1.8,0,1.3-0.3,2-1.7c0.9,1.2,0.3,1.8,2.1,1.5C70.9,105.9,70.6,105.9,69.9,105z M35,68.6l-0.6,1
			c-2.4-4.5,0.9-7,2.6-9.5C37,62,35.9,66.6,35,68.6z M37.5,61.6l1.3,1.1l-0.3,2.1l1.3-0.3c-0.5,1.4-1.4,2.8-2.1,4.3
			c-0.6,1.3-0.9,3.4-1.6,4.7C34.3,71.8,37.2,68.9,37.5,61.6z M48.5,90.4c-0.1-0.5-0.3-1-0.4-1.6c0,0-0.1-0.7-0.1-0.7
			c0-0.2,0-0.2,0-0.4l0.1-0.4c0.9,0.9,0.5,0.9,0.9,2.8c0.2,1,0.5,1.9,0.7,2.8C48.8,92.2,48.8,91.8,48.5,90.4z"/>
		<path fill-rule="evenodd" clip-rule="evenodd" fill="#FFFFFF" d="M85.2,61.1c-0.8-0.4-1-0.5-1.5-1.9c-0.9,0.2-0.4,0.4-1.5,0.4
			l-1-2c-1,1.8-3.4,0.8-4.1-0.3c-0.4-0.6-1.3-4.4-1.3-5.3c1.4-0.2,0.8,0.3,2,0.6c0.7-1,1-2.4,1-3.7c-1.5-0.2-2.5,0.7-4,1.1l-1-2.9
			c0.5-0.7,0.9-0.6,1.1-1.7l-1.7,0.5c-0.9-1.7-3-6.5-4.2-7.5c-0.8,0.9-2.4,4.9-3.1,6.2c-0.9,1.7-4.4,1.8-4.8,4.3
			c0.7-0.5,1.5-1.2,2.6-1.2c0.4,1.3-1.2,6.3-1.9,7.6c-2.1-0.6,0.6-0.6-1.9-1.6c-1.2-0.4-1.5-0.8-2.4-1.1c0.1,3,1.3,3.8,3.8,4.6
			l-0.8,5c-1,0.7-3.7,1.4-4.9,0.7c-0.2,1-0.1,1.9,0.2,2.6c2.1,0.4,2.9-0.6,4.6-0.8c0.1,2.6,0.5,4.6,2,5.8c2.6,1.9,4-1.2,5.1-1.5
			l0.1,3.8c-3.5,1.7-10.8-3.2-12.7-4.6c-3.8-2.8-7.4-6.9-4.2-11.5c2.2-3.3,6.6-6.2,9.6-8.8c3.4-2.9,7-5.5,7.3-11.4
			c-0.9,0.4-1.2,1-2.2,1.9c-0.8,0.8-1.4,1.2-2.4,1.7c-2.3,1.2-4.2,0.4-3.4,4.3c-2.4,0.8-7.6,5.3-8.8,7.2c-5.3,7.6-2,16.7,4.8,22
			c2.1,1.7,6.7,5.9,10.8,5.3c0.5-0.6,0.9-1.1,1.2-2.1l-0.1,6.5c1.2-2.3,1.9-10.5,2.2-13.7c0.5-5.7-0.2-9.2-0.9-14.7
			c1.6,0.2,1.9-0.2,3.2-0.3c0.3,2.1,0.7,4.1,0.8,6.2c0.3,3.6-0.2,3.3-1,6c3-1,2.5-7.5,1.9-10.6c-0.4-1.9-1.1-2.4,0.8-3
			c0.6,3.1,3.4,13.5-0.2,15.4c-1.7,0.9-3-0.9-4-1.5c0.5,1.7,3.9,5.5,6.4,2.9c2.2-2.2,1.3-6.7,1-9.8c1.7,1.1,2.4,2,3.9-0.2l0.5,2.1
			c1,0.1,1.2-0.1,1.7,0.3c0.1,0,0.2,0.2,0.3,0.3c0.4,0.4-0.4,0.1,0.7,0.5c0.4-0.5,0.8-1,1.1-1.9L85.2,61.1z M77.1,50.8
			c0.3-1.1,0.2-0.5,0.7-0.7c0.4,1.1,0.4,1.1-0.3,1.6C77.3,51.5,76.8,51.7,77.1,50.8z M60.6,41.9c0.3-0.3,0.5-0.5,1.1-0.5
			c0,1.2-0.3,1.9-1.5,2C60.1,42.4,59.9,42.6,60.6,41.9z M63.2,57.9c0.9,0.3,1.2,0.4,1.7,1.2c-0.1,1.4-0.9,1.8-2.2,2.2L63.2,57.9z
			 M65.6,51.1c0.1,4,1.9,10.3,1.8,16.8c-1.3,0.7-2.4,1.6-3.7,0.1c-0.9-1.1-1.3-3-1-4.8c0,0,5.1-2.9,1.8-6.2
			c-1.3-1.3-0.8-1.4-0.4-3.4c0.3-1.4,0.7-2.7,1-4c2.8,0,3.6-0.9,5.8-1.3l0.4,3.1C68.3,52.1,68.2,51.9,65.6,51.1z M70.4,44.2l0.1,2.6
			c-1.8,0.4-2.4,0.9-4.1,0.1c-0.3-1.8,2.1-5.8,2.6-7.9c0.4,0.3,0.1,0.1,0.5,0.5l1.4,3.3c1.1,2.8,1.8,3.2,0.7,3.8
			C70.7,46,70.9,45.1,70.4,44.2z M72.3,51.1c-0.4-1.1-0.7-2-0.6-3.2l1-0.3l0.8,3.1L72.3,51.1z"/>
		<path fill-rule="evenodd" clip-rule="evenodd" fill="#FFFFFF" d="M87.6,51.3c-1.9-2.6-6-5.9-8.9-7.4c0.9-3.5-1.3-3.1-3.5-4.2
			c-2.3-1.1-3-2.7-4.5-3.7C71.3,43.6,77.5,47,83,51.7c1.6,1.3,3.3,2.9,4.6,4.7c3.4,5-1.6,9.4-4.7,11.7c-2.3,1.7-6.3,4-9.4,4.6
			c-2.1,0.4-2.5,0.2-3.4-1.1c-0.2,2.6,0.3,5,1.8,7C78.7,79,97.1,64.6,87.6,51.3z M77.9,43c-1.1,0.3-1.4-0.6-1.4-1.9
			c0.6,0.1,0.8,0.2,1.1,0.6C78.7,42.9,77.9,43,77.9,43z"/>
		<path fill-rule="evenodd" clip-rule="evenodd" fill="#FFFFFF" d="M72.8,17l1.7,0.2c0.7-1.8,0.3-4.9,1.2-6.6l0.9,6.8l1.8,0.2L81,11
			l-0.7,7l1.6,0.1c0.6-0.9,1.4-8.3,1.3-9.7l-2.7-0.3c-1.1,1.4-1.8,4.9-2.8,6C77,6.2,77,7.5,73.9,7.3L72.8,17z"/>
		<path fill-rule="evenodd" clip-rule="evenodd" fill="#FFFFFF" d="M124.4,79.9l-0.2,1.7l3.9,0.6c-0.2,2.1-1.4,2.5-4.6,3.7l-0.4,2.2
			c1.7-0.3,3.3-1.2,4.6-2.3c0.5,1.1,0.4,1.9,1.6,2.5c4.2,2.1,4.5-4.6,4.8-7.3C132.1,80.9,125.9,79.3,124.4,79.9z M131.6,86.4
			c-3.1,0.6-2.1-1.8-1.7-3.9l2.4,0.3L131.6,86.4z"/>
		<path fill-rule="evenodd" clip-rule="evenodd" fill="#FFFFFF" d="M92.7,22l1.7,1l3-5.1l0.4,7.3l1.7,0.7c0.8-1.1,4.5-7.7,4.6-8.6
			c-0.9-0.4-0.6-0.5-1.6-0.6l-2.5,4.4c-0.6,0.8-0.1,0.3-0.6,0.6l-0.3-7.1l-1.7-0.9L92.7,22z"/>
		<path fill-rule="evenodd" clip-rule="evenodd" fill="#FFFFFF" d="M128.3,68.9c-5.6,1.1-4.7,10.9,3.1,9.2
			C136.8,76.9,136.1,67.3,128.3,68.9z M131.1,76.1c-4.9,1-6.4-4.2-2.3-5.1C133.6,69.8,134.6,75.3,131.1,76.1z"/>
		<path fill-rule="evenodd" clip-rule="evenodd" fill="#FFFFFF" d="M55.1,8.5c-6.3,1.6-3.7,11.6,2.7,9.7
			C63.6,16.6,61.5,6.9,55.1,8.5z M53.7,13.8C53,9.2,58.3,8.5,59,13C59.8,17.6,54.3,17.9,53.7,13.8z"/>
		<path fill-rule="evenodd" clip-rule="evenodd" fill="#FFFFFF" d="M13.5,38.2c-0.6,0.6-2.5,3.7-2.8,4.7l8.2,4.9
			c0.9-0.8,2.5-3.9,2.7-4.7C22.6,38.7,15.9,36,13.5,38.2z M18.8,45.2c-1.3-0.3-4.5-2.3-5.6-3.1c0.3-1.4,1.3-2.9,3-2.7
			c1.2,0.1,2.9,1.5,3.6,2.2C20.1,43.2,19.3,44.1,18.8,45.2z"/>
		<path fill-rule="evenodd" clip-rule="evenodd" fill="#FFFFFF" d="M84.1,19.1c1.5,0.4,5.8,2.1,7.1,2l0.4-1.3L86.5,18l0.7-2.4
			c0.9,0.1,1.6,0.4,2.5,0.7l1.7,0.5c0.7,0,0.4,0,0.7-0.1l0.3-1.2c-1.3-0.6-3.4-0.9-4.5-1.7l0.5-1.8c4,0.4,5,3.1,5.5-0.2l-6.7-2
			C86.3,11.2,84.4,17.2,84.1,19.1z"/>
		<path fill-rule="evenodd" clip-rule="evenodd" fill="#FFFFFF" d="M32.7,17.9c0.4,1.3,3.9,7.7,4.7,8.6c1.5-0.5,5.4-2.6,6.4-3.6
			l-0.6-1.2c-1.8,0.2-3.2,1.9-5.1,2.3L37,21.7c1.3-0.6,3.3-1.5,4.1-2.4l-0.5-1.1c-1.2,0.1-3.3,1.5-4.4,2.1l-1.2-1.8
			c0.7-0.4,4-2,4.5-2.8l-0.6-1.1L32.7,17.9z"/>
		<path fill-rule="evenodd" clip-rule="evenodd" fill="#FFFFFF" d="M123.6,59.4l0.2,1.6l4.3-0.6l0.6,3.8l-4.1,0.7l0.2,1.9l9.6-1.6
			l-0.2-1.8c-1.4-0.2-2.4,0.3-3.9,0.3l-0.6-3.7l3.7-0.7l-0.3-1.8c-1.2-0.1-3.5,0.5-4.8,0.7c-0.7,0.1-1.6,0.3-2.4,0.4
			c-0.3,0.1-0.8,0.1-1.2,0.2L123.6,59.4z"/>
		<path fill-rule="evenodd" clip-rule="evenodd" fill="#FFFFFF" d="M119.7,31c-1.8,0.2-8.4,2.2-10.2,3c0.4,0.9,0.5,1,1.3,1.5
			l2.2-0.6c0.9,1.1,1.6,1.9,2.3,3.1l-1.1,1.9c0.5,0.9,0.5,1.1,1.3,1.6c0.8-1,4.8-7.9,5.2-9L119.7,31z M116.4,36.2
			c-0.2-0.1-0.3-0.2-0.3-0.2l-1.1-1.3c0-0.1-0.1-0.2-0.1-0.2c0,0-0.1-0.1-0.1-0.2c0.3-0.2,0.1-0.1,0-0.1c0,0,0.1-0.1,0.5-0.2
			c0.3-0.1,0.6-0.2,0.9-0.3c0.7-0.2,1.2-0.4,1.9-0.6L116.4,36.2z"/>
		<path fill-rule="evenodd" clip-rule="evenodd" fill="#FFFFFF" d="M17.1,32.7l7.1,6.5c1-0.7,1.5-1.7,2.5-2.6
			c0.9-0.8,1.7-1.8,2.4-2.8l-1-1.1c-1,0.7-2.9,2.8-3.5,3.9c-0.9-0.4-1.6-1-2.1-1.7c0.5-0.7,2.4-2.9,3.1-3.5l-1.3-1.2
			c-0.8,1.1-2.3,2.7-3.1,3.5l-1.6-1.2c0.7-1.5,2.6-2.5,3.3-4.2l-0.8-0.8C20.9,28,17.5,32,17.1,32.7z"/>
		<path fill-rule="evenodd" clip-rule="evenodd" fill="#FFFFFF" d="M14.4,60.1L4.2,62.5l-0.2,2.1c1.8,0.9,7.8,4.8,9.2,4.9l0.2-1.8
			l-2-1.1l0.5-3.8C14,61.7,14.2,63.1,14.4,60.1z M9.8,65.6L7,64.2c-0.4-0.3-0.2-0.2-0.5-0.5L10,63L9.8,65.6z"/>
		<path fill-rule="evenodd" clip-rule="evenodd" fill="#FFFFFF" d="M128.4,44.6c-0.2-0.9-0.3-0.9-0.8-1.7c-2.3,0.5-4.9,3.6-7.4,3.2
			c-2-1.7-1.2-2.9,0.8-4c1.1-0.6,3.7-2,4.5-2.7l-0.8-1.6c-1.5,0.5-4,2.2-5.3,2.9c-2,1.2-2.9,2.7-1.5,5.3c1.1,2,2.6,3,5.3,1.6
			C124.9,46.6,126.7,45.4,128.4,44.6z"/>
		<path fill-rule="evenodd" clip-rule="evenodd" fill="#FFFFFF" d="M62.9,31.3c3.1,6.1,14.3,3.6,14-4.4c-0.1-2.2-1.4-4.7-3.1-5.5
			c0.7,2.1,2.7,6-0.9,9.3c-1,1-2.8,1.6-4.6,1.8C65.7,32.7,64.6,31.9,62.9,31.3z"/>
		<path fill-rule="evenodd" clip-rule="evenodd" fill="#FFFFFF" d="M18.5,97.1l-2.4,0l-1.3-3.6c0.6-0.5,1.3-1.2,1.6-1.9L15.8,90
			c-2.6,1.9-5.4,5.4-7.6,6.6l0.5,2.3L19.2,99L18.5,97.1z M14.2,97.2l-3.4,0c0.4-0.8,2-2,2.7-2.3C13.9,95.7,14.3,96.3,14.2,97.2z"/>
		<path fill-rule="evenodd" clip-rule="evenodd" fill="#FFFFFF" d="M70.9,9.2c-0.7-2.8-4.5-1.9-7.4-2l0.2,9.8l1.9,0l0-3.7
			C68.5,13.3,71.9,13.1,70.9,9.2z M68.8,11.1c-0.8,0.4-2,0.6-3.2,0.4l0-2.7C67.8,8.8,69.3,8.5,68.8,11.1z"/>
		<path fill-rule="evenodd" clip-rule="evenodd" fill="#FFFFFF" d="M15,87.1l-3.6,0.6c-0.5-2.7-1.4-5.9-5-4.4c-2.8,1.2-1,5-0.6,7.7
			l9.6-2.1L15,87.1z M7.2,88.6c-0.6-1-1.2-3.4,0.6-3.5c1.4-0.1,1.7,1.7,1.9,3.1L7.2,88.6z"/>
		<path fill-rule="evenodd" clip-rule="evenodd" fill="#FFFFFF" d="M19.2,107.7c-2.8,1.8-5.2,0.4-4-3l-1.4-1.2
			c-3.3,3.7,2,9.9,7.5,5.3c3-2.6,1.3-7.7-2.4-7.8c-2-0.1-1.5,0.4-1.2,2c1.9,0.3,3.1-0.1,3.3,1.9C21.2,106.2,20.1,107.1,19.2,107.7z"
			/>
		<path fill-rule="evenodd" clip-rule="evenodd" fill="#FFFFFF" d="M28.5,21.1l2.7,6.8c-2.2-0.7-4.9-3.1-6.8-3.4
			c-0.5,0.7-0.6,0.5-1.2,1.6l8.9,4.8l1.5-1.1c-0.5-3.1-3.1-7.1-3.5-9.9L28.5,21.1z"/>
		<path fill-rule="evenodd" clip-rule="evenodd" fill="#FFFFFF" d="M121.8,112.3c2.1-2.5,0.6-1.6-0.8-5.6l4.4,0l1-1.9
			c-11.5,0.1-5.7-0.9-10.2-2l-0.7,1.5c1.4,1.8,2.6,0.9,3.8,3.3C119.7,108.4,121.1,111.6,121.8,112.3z"/>
		<path fill-rule="evenodd" clip-rule="evenodd" fill="#FFFFFF" d="M105.7,20.1c0.8,1.2,1.1,0.9,2.1,2c-1,2.1-3.4,4.2-4.7,6.3
			c0.5,0.8,0.7,0.9,1.5,1.2c0.9-0.8,1.8-2.1,2.5-3c0.8-1,1.5-2,2.4-3c0.6,0.3,0.6,0.4,1.1,0.8c0.9,0.6,0.3,0.5,1.3,0.6l0.7-0.8
			c-0.6-1.2-5.3-4.6-6.1-4.9L105.7,20.1z"/>
		<path fill-rule="evenodd" clip-rule="evenodd" fill="#FFFFFF" d="M119.6,96.8l7.2,3.3c-0.5,2.1-1.9,2.7,0.4,3.2
			c0.8-1,2.8-5.6,3.2-7.1l-1.2-0.4c-0.7,0.6-0.8,1.3-1.4,2.4c-2-0.3-5.3-2.5-7.6-3.1L119.6,96.8z"/>
		<path fill-rule="evenodd" clip-rule="evenodd" fill="#FFFFFF" d="M128.3,47.9l0.7,2.7c-1.5,1-5.4,1.9-7.5,2.8l0.5,1.9l7.6-2.6
			l1,2.6l1.5-0.4l-2.4-7.3L128.3,47.9z"/>
		<polygon fill-rule="evenodd" clip-rule="evenodd" fill="#FFFFFF" points="3.4,76.9 5,77 5.1,74.1 13.1,73.9 13.2,72 5,72 
			4.9,69.1 3.4,69.1 		"/>
		<path fill-rule="evenodd" clip-rule="evenodd" fill="#FFFFFF" d="M13.8,56.4c-2.1-0.4-5.9-2.3-7.7-2.3l-0.5,1.8l9.3,3.1
			c0.4-2,2-4.9,2-6.7l-1.4,0C14.7,53.5,14.6,55.2,13.8,56.4z"/>
		<path fill-rule="evenodd" clip-rule="evenodd" fill="#FFFFFF" d="M42.1,13c0.3,2.2,2.5,6.6,3.3,9.1l6.5-2.4l-0.4-1.4l-4.6,1.5
			l-3-7.3L42.1,13z"/>
		<path fill-rule="evenodd" clip-rule="evenodd" fill="#FFFFFF" d="M68.6,84.3c1.4,0.7,2.4,1.8,3.7,2.4c0.8-0.9,1.9-2.6,2.3-3.6
			c-0.5-0.7-0.1-0.3-0.7-0.8l-3.1-2C70.3,81.6,69,82.8,68.6,84.3z"/>
		<path fill-rule="evenodd" clip-rule="evenodd" fill="#FFFFFF" d="M121.9,91c1,0.6,8.2,3,9.4,3l0.4-1.6c-1.3-0.8-7.6-2.9-9.2-3
			L121.9,91z"/>
		<path fill-rule="evenodd" clip-rule="evenodd" fill="#FFFFFF" d="M49.5,32.4c1.9,0.9,1.2,0.9,4,0.7c0.1-0.8-0.2-1.7-0.5-2.3
			c0.6-0.8,1.3-0.9,1.5-2.1c-1.5-0.2-1.2,0-2.5,0.3c-0.2-1-0.3-1.2-0.8-1.8C49.8,28.7,49.2,29.9,49.5,32.4z"/>
		<path fill-rule="evenodd" clip-rule="evenodd" fill="#FFFFFF" d="M3.8,79.5l0.1,1.6l9.8-1.1l-0.2-1.9l-7.4,0.9
			c-0.4,0-0.9,0.1-1.2,0.1L3.8,79.5z"/>
		<path fill-rule="evenodd" clip-rule="evenodd" fill="#FFFFFF" d="M78.7,69.2c2.2-0.1,5.3-3.1,6.3-4.2c3.4-3.9,1.6-3.1,1.7-8
			l-1.2-0.7c-0.8,3.8,4.6,4.3-4,10.1C80.4,67.2,79.2,68,78.7,69.2z"/>
		<path fill-rule="evenodd" clip-rule="evenodd" fill="#FFFFFF" d="M23.4,63.5c0.4,0.6,0.6,0.8,1.1,1.4l-0.2,1.9
			c2.1-0.6,1.1-0.8,3.2,0c0.4-0.8,0,0.1,0.1-0.6l0.2-0.7c1.1,0.5,1.6,1.1,2.6,1.7c-0.6-1.2-1.3-1.1-2.7-2.3c0.5-0.6,0.8-0.8,1.2-1.6
			L27,63.1l-0.6-1.3c-0.6,0.3-0.9,0.9-1.2,1.1C24.6,63.4,24.2,63.2,23.4,63.5z"/>
		<path fill-rule="evenodd" clip-rule="evenodd" fill="#FFFFFF" d="M64.3,21.5c-1.4,0-1.2-0.3-2.5-0.5l1.1,2.2l-1.4,1.8l2.2-0.4
			l1.3,1.9l0.4-2.4l2.2-0.6c-0.4-0.6-1.2-0.8-1.9-1l0.1-2.6C65.6,20.2,64.9,21,64.3,21.5z"/>
		<path fill-rule="evenodd" clip-rule="evenodd" fill="#FFFFFF" d="M97,69c0.5-0.8,0.5-0.5,1.5-0.7c-0.3-0.5-0.1-0.6-1.2-1.2
			l0.1-2.2c-2.7,1-0.6,1-3.5,0.1c0.5,3.1,0.2,1.3-0.8,3.4l1.8,0.2l0.9,1.6c0.1-0.1,0.2-0.3,0.2-0.2C96.1,70.1,96.3,69.3,97,69z"/>
		<g>
			<path fill-rule="evenodd" clip-rule="evenodd" fill="#FFFFFF" d="M70.4,146.6c0.7-1,1.1-8.7,1.1-9.7l-2.7-0.2
				c-0.5,0.6-0.5,0.7-0.8,1.6c-0.7,1.9-0.8,2.8-1.8,4.2l-1.1-6.2l-3-0.1l-0.7,9.7l1.7-0.1l0.7-6.7c1.7,5.5-0.4,7.4,3,7.1
				c1.1-1.6,1.5-5.2,2.6-6.2l-0.5,6.5L70.4,146.6z"/>
			<path fill-rule="evenodd" clip-rule="evenodd" fill="#FFFFFF" d="M89.8,140.6c-0.4-1.2-1.1-1.3-2.1-1.8c2.7-5.2-4.5-4.3-7.5-2.7
				l2.3,9.4c1.6-0.2,5.4-1.1,6.5-1.9C89.7,143,90.2,141.9,89.8,140.6z M82.6,137.1c1.2-0.3,2.1-0.7,3.5-0.5l0.3,1.3
				c-0.7,0.9-2.1,1.1-3.5,1.3L82.6,137.1z M84,143.3l-0.4-2.4c1.4-0.3,4-1.4,4.2,0.5C87.9,142.9,85.5,143.2,84,143.3z"/>
			<path fill-rule="evenodd" clip-rule="evenodd" fill="#FFFFFF" d="M101.3,128.5c-1.2,0.2-3.6,1.9-4.7,2.6c0.2,0.4-0.1,0.3,0.4,1.2
				l4.5,7.2c1.3-0.4,4-2.2,4.6-2.9C108.4,133.8,105.2,127.8,101.3,128.5z M102.3,137.1l-3.3-5.3c2.3-2,3.7-1.8,5.2,0.6
				C105.9,135.3,104.8,135.9,102.3,137.1z"/>
			<path fill-rule="evenodd" clip-rule="evenodd" fill="#FFFFFF" d="M36.3,134.6c-1.1,6.6,8.4,7,7.3,1.7c-0.4-1.9-4.3-3.5-3.1-4.6
				c0.8-0.8,2.3,0.1,2.6,0.9c0.5,1.4-0.3,1.5,2,1.9c0.4-2.1,0-3-1.6-3.9c-1.3-0.8-3.2-1.3-4.4-0.2c-3.2,2.9,2.7,4.9,2.4,7.4
				c-0.9,0.6-1.6,0.7-2.6-0.1c-1.1-0.8-0.6-1.2-1-2.6L36.3,134.6z"/>
			<path fill-rule="evenodd" clip-rule="evenodd" fill="#FFFFFF" d="M76.8,136.3l-2,0.2c-0.3,0.5-0.3,0.5-0.5,1.2
				c-0.2,0.5-0.2,0.8-0.4,1.3l-2.1,7.5c2.5-0.2,2-0.1,2.6-2.4l3.9-0.3l1,2l1.9-0.1C81.3,144.7,77.5,137.8,76.8,136.3z M74.9,142.4
				l0.9-3.3c0.1,0.1,0.1,0.1,0.2,0.2l1.4,3L74.9,142.4z"/>
			<path fill-rule="evenodd" clip-rule="evenodd" fill="#FFFFFF" d="M92.9,132.3l-1.8,0.7l0.1,10.5l1.9-0.7l0.1-2.4l3.6-1.3
				c0.6,0.6,0.9,0.9,1.7,1.6l1.8-0.8C98.3,138,95,133.8,92.9,132.3z M93.1,138.6l-0.2-3.6c0.7,0.5,2.1,1.9,2.5,2.7L93.1,138.6z"/>
			<path fill-rule="evenodd" clip-rule="evenodd" fill="#FFFFFF" d="M58.7,135.6l-2.1-0.4c-0.8,1-5.5,7.5-5.9,8.6l2.2,0.3
				c0.4-0.9,0.6-0.8,0.9-1.8c5,0.5,4,1.5,4.3,3.2l2.1,0.4L58.7,135.6z M55.2,140.9c0.3-1,1.3-2.3,1.9-3.1l0.6,3.6L55.2,140.9z"/>
			<path fill-rule="evenodd" clip-rule="evenodd" fill="#FFFFFF" d="M48.6,132.8l-1.8-0.5l-3,8.9c0.7,0.6,5.2,2.2,6.5,2.3l0.4-1.2
				c-0.8-1-2.7-0.9-4.5-1.9L48.6,132.8z"/>
			<path fill-rule="evenodd" clip-rule="evenodd" fill="#FFFFFF" d="M34,136.5c0.7-2.4,4.2-6.3,4.6-8.5l-1.5-0.8
				c-0.7,0.7-4.4,7-5,8.3L34,136.5z"/>
		</g>
	</g>
	<text transform="matrix(1 0 0 1 152.6297 51.3901)" fill="#FFFFFF" font-family="'Verdana'" font-size="18.8727">GOVERNMENT OF PAKISTAN</text>
	<text transform="matrix(1 0 0 1 152.6297 118.841)" fill="#FFFFFF" font-family="'Verdana'" font-size="18.8727">Islamabad</text>
	<text transform="matrix(1 0 0 1 152.6297 90.4358)" fill="#FFFFFF" font-family="'Verdana'" font-size="35.7536">CAPITAL DEVELOPMENT AUTORITY</text>
</g>
</svg>
